<mxfile host="Electron" agent="Mozilla/5.0 (Windows NT 10.0; Win64; x64) AppleWebKit/537.36 (KHTML, like Gecko) draw.io/26.2.15 Chrome/134.0.6998.205 Electron/35.2.1 Safari/537.36" version="26.2.15">
  <diagram name="Page-1" id="7P-4vsY_3SXezdbNKp2z">
    <mxGraphModel dx="2780" dy="4508" grid="1" gridSize="10" guides="1" tooltips="1" connect="1" arrows="1" fold="1" page="1" pageScale="1" pageWidth="2000" pageHeight="4000" math="0" shadow="0">
      <root>
        <mxCell id="0" />
        <mxCell id="1" parent="0" />
        <mxCell id="-4F1bldaN1rVmbEE7iW6-6" value="&lt;span style=&quot;font-size: 16px;&quot;&gt;Create Reports Page&lt;/span&gt;" style="text;strokeColor=none;fillColor=none;html=1;fontSize=24;fontStyle=1;verticalAlign=middle;align=center;" vertex="1" parent="1">
          <mxGeometry x="300" y="-409" width="100" height="40" as="geometry" />
        </mxCell>
        <mxCell id="-4F1bldaN1rVmbEE7iW6-28" value="" style="edgeStyle=orthogonalEdgeStyle;rounded=0;orthogonalLoop=1;jettySize=auto;html=1;" edge="1" parent="1" source="-4F1bldaN1rVmbEE7iW6-12">
          <mxGeometry relative="1" as="geometry">
            <mxPoint x="184" y="-11" as="targetPoint" />
            <Array as="points">
              <mxPoint x="174" y="-11" />
              <mxPoint x="174" y="-11" />
            </Array>
          </mxGeometry>
        </mxCell>
        <mxCell id="-4F1bldaN1rVmbEE7iW6-29" value="HTTP&lt;div&gt;GET&lt;br&gt;&lt;div&gt;request&lt;/div&gt;&lt;/div&gt;" style="edgeLabel;html=1;align=center;verticalAlign=middle;resizable=0;points=[];" vertex="1" connectable="0" parent="-4F1bldaN1rVmbEE7iW6-28">
          <mxGeometry x="-0.2" y="-1" relative="1" as="geometry">
            <mxPoint as="offset" />
          </mxGeometry>
        </mxCell>
        <mxCell id="-4F1bldaN1rVmbEE7iW6-12" value="Browser requests map reports page&lt;div&gt;/map&lt;/div&gt;" style="rounded=0;whiteSpace=wrap;html=1;" vertex="1" parent="1">
          <mxGeometry x="-88" y="-53" width="150" height="60" as="geometry" />
        </mxCell>
        <mxCell id="-4F1bldaN1rVmbEE7iW6-13" value="&lt;div&gt;&lt;br&gt;&lt;/div&gt;&lt;div&gt;&lt;br&gt;&lt;/div&gt;" style="rounded=0;whiteSpace=wrap;html=1;strokeColor=#0000FF;" vertex="1" parent="1">
          <mxGeometry x="340" y="-220" width="300" height="530" as="geometry" />
        </mxCell>
        <mxCell id="-4F1bldaN1rVmbEE7iW6-31" value="" style="edgeStyle=orthogonalEdgeStyle;rounded=0;orthogonalLoop=1;jettySize=auto;html=1;" edge="1" parent="1">
          <mxGeometry relative="1" as="geometry">
            <mxPoint x="283" y="-11" as="sourcePoint" />
            <mxPoint x="343" y="-11" as="targetPoint" />
            <Array as="points">
              <mxPoint x="333" y="-11" />
              <mxPoint x="333" y="-11" />
            </Array>
          </mxGeometry>
        </mxCell>
        <mxCell id="-4F1bldaN1rVmbEE7iW6-32" value="&lt;div&gt;request&lt;/div&gt;" style="edgeLabel;html=1;align=center;verticalAlign=middle;resizable=0;points=[];" vertex="1" connectable="0" parent="-4F1bldaN1rVmbEE7iW6-31">
          <mxGeometry x="0.1646" y="1" relative="1" as="geometry">
            <mxPoint x="-9" as="offset" />
          </mxGeometry>
        </mxCell>
        <mxCell id="-4F1bldaN1rVmbEE7iW6-27" value="&lt;span style=&quot;float: none; background-color: light-dark(#ffffff, var(--ge-dark-color, #121212)); display: inline !important;&quot;&gt;&lt;font style=&quot;color: rgb(0, 0, 0);&quot;&gt;URL&lt;/font&gt;&lt;/span&gt;&lt;div style=&quot;color: rgb(255, 255, 255);&quot;&gt;&lt;span style=&quot;background-color: light-dark(#ffffff, var(--ge-dark-color, #121212));&quot;&gt;&lt;font style=&quot;color: rgb(0, 0, 0);&quot;&gt;urls.py&lt;/font&gt;&lt;/span&gt;&lt;/div&gt;&lt;div style=&quot;color: rgb(255, 255, 255);&quot;&gt;&lt;font style=&quot;color: rgb(0, 0, 0); background-color: light-dark(#ffffff, var(--ge-dark-color, #121212));&quot;&gt;finds linked view&lt;/font&gt;&lt;/div&gt;&lt;div style=&quot;color: rgb(255, 255, 255);&quot;&gt;&lt;font style=&quot;color: rgb(0, 0, 0);&quot;&gt;MapReportsView&lt;/font&gt;&lt;/div&gt;" style="whiteSpace=wrap;html=1;rounded=0;" vertex="1" parent="1">
          <mxGeometry x="182" y="-45" width="100" height="70" as="geometry" />
        </mxCell>
        <mxCell id="-4F1bldaN1rVmbEE7iW6-36" value="&lt;div&gt;views.py&lt;/div&gt;&lt;div&gt;&lt;span style=&quot;text-wrap-mode: wrap;&quot;&gt;&lt;font style=&quot;color: light-dark(rgb(0, 0, 255), rgb(255, 255, 255));&quot; face=&quot;Lucida Console&quot;&gt;MapReportView&lt;/font&gt;&lt;/span&gt;&lt;/div&gt;" style="text;html=1;align=center;verticalAlign=middle;resizable=0;points=[];autosize=1;strokeColor=none;fillColor=none;" vertex="1" parent="1">
          <mxGeometry x="424" y="-220" width="120" height="40" as="geometry" />
        </mxCell>
        <mxCell id="-4F1bldaN1rVmbEE7iW6-37" value="" style="rounded=0;whiteSpace=wrap;html=1;" vertex="1" parent="1">
          <mxGeometry x="350" y="-33" width="279" height="323" as="geometry" />
        </mxCell>
        <mxCell id="-4F1bldaN1rVmbEE7iW6-49" value="&lt;font style=&quot;color: rgb(0, 0, 255);&quot; face=&quot;Lucida Console&quot;&gt;get()&lt;/font&gt;" style="text;html=1;align=center;verticalAlign=middle;resizable=0;points=[];autosize=1;strokeColor=none;fillColor=none;labelBackgroundColor=default;" vertex="1" parent="1">
          <mxGeometry x="465" y="-49" width="60" height="30" as="geometry" />
        </mxCell>
        <mxCell id="-4F1bldaN1rVmbEE7iW6-138" value="" style="edgeStyle=orthogonalEdgeStyle;rounded=0;orthogonalLoop=1;jettySize=auto;html=1;endArrow=classic;startFill=0;entryX=0;entryY=0.198;entryDx=0;entryDy=0;exitX=0;exitY=0.5;exitDx=0;exitDy=0;entryPerimeter=0;endFill=1;" edge="1" parent="1" source="-4F1bldaN1rVmbEE7iW6-50" target="-4F1bldaN1rVmbEE7iW6-162">
          <mxGeometry relative="1" as="geometry">
            <mxPoint x="389.99" y="21.70799999999963" as="sourcePoint" />
            <mxPoint x="387.6099999999999" y="259" as="targetPoint" />
            <Array as="points">
              <mxPoint x="370" y="-4" />
              <mxPoint x="370" y="190" />
            </Array>
          </mxGeometry>
        </mxCell>
        <mxCell id="-4F1bldaN1rVmbEE7iW6-139" value="form" style="edgeLabel;html=1;align=center;verticalAlign=middle;resizable=0;points=[];" vertex="1" connectable="0" parent="-4F1bldaN1rVmbEE7iW6-138">
          <mxGeometry x="0.3563" y="-2" relative="1" as="geometry">
            <mxPoint x="1" y="19" as="offset" />
          </mxGeometry>
        </mxCell>
        <mxCell id="-4F1bldaN1rVmbEE7iW6-50" value="get blank &lt;font face=&quot;Lucida Console&quot; style=&quot;color: rgb(0, 102, 0);&quot;&gt;ReportForm&lt;/font&gt;" style="rounded=0;whiteSpace=wrap;html=1;" vertex="1" parent="1">
          <mxGeometry x="390" y="-19" width="229" height="30" as="geometry" />
        </mxCell>
        <mxCell id="-4F1bldaN1rVmbEE7iW6-51" value="get all existing reports created by user" style="rounded=0;whiteSpace=wrap;html=1;align=center;" vertex="1" parent="1">
          <mxGeometry x="390" y="20" width="229" height="30" as="geometry" />
        </mxCell>
        <mxCell id="-4F1bldaN1rVmbEE7iW6-103" value="" style="edgeStyle=orthogonalEdgeStyle;rounded=0;orthogonalLoop=1;jettySize=auto;html=1;entryX=0.001;entryY=0.276;entryDx=0;entryDy=0;exitX=1;exitY=0.25;exitDx=0;exitDy=0;entryPerimeter=0;" edge="1" parent="1" source="-4F1bldaN1rVmbEE7iW6-52" target="-4F1bldaN1rVmbEE7iW6-76">
          <mxGeometry relative="1" as="geometry">
            <mxPoint x="1111.5000000000005" y="156.99846153846102" as="sourcePoint" />
            <mxPoint x="859" y="157" as="targetPoint" />
            <Array as="points" />
          </mxGeometry>
        </mxCell>
        <mxCell id="-4F1bldaN1rVmbEE7iW6-106" value="latitude&lt;div&gt;longitude&lt;/div&gt;" style="edgeLabel;html=1;align=center;verticalAlign=middle;resizable=0;points=[];" vertex="1" connectable="0" parent="-4F1bldaN1rVmbEE7iW6-103">
          <mxGeometry x="-0.0459" y="4" relative="1" as="geometry">
            <mxPoint x="5" y="-1" as="offset" />
          </mxGeometry>
        </mxCell>
        <mxCell id="-4F1bldaN1rVmbEE7iW6-176" value="" style="edgeStyle=orthogonalEdgeStyle;rounded=0;orthogonalLoop=1;jettySize=auto;html=1;" edge="1" parent="1" source="-4F1bldaN1rVmbEE7iW6-52" target="-4F1bldaN1rVmbEE7iW6-162">
          <mxGeometry relative="1" as="geometry" />
        </mxCell>
        <mxCell id="-4F1bldaN1rVmbEE7iW6-177" value="reports" style="edgeLabel;html=1;align=center;verticalAlign=middle;resizable=0;points=[];" vertex="1" connectable="0" parent="-4F1bldaN1rVmbEE7iW6-176">
          <mxGeometry x="0.146" relative="1" as="geometry">
            <mxPoint y="-5" as="offset" />
          </mxGeometry>
        </mxCell>
        <mxCell id="-4F1bldaN1rVmbEE7iW6-71" value="" style="edgeStyle=orthogonalEdgeStyle;rounded=0;orthogonalLoop=1;jettySize=auto;html=1;exitX=0;exitY=0.5;exitDx=0;exitDy=0;entryX=0.984;entryY=0.621;entryDx=0;entryDy=0;entryPerimeter=0;" edge="1" parent="1" source="-4F1bldaN1rVmbEE7iW6-162" target="-4F1bldaN1rVmbEE7iW6-70">
          <mxGeometry relative="1" as="geometry">
            <mxPoint x="465" y="820" as="sourcePoint" />
            <Array as="points" />
          </mxGeometry>
        </mxCell>
        <mxCell id="-4F1bldaN1rVmbEE7iW6-122" value="HTML" style="edgeLabel;html=1;align=center;verticalAlign=middle;resizable=0;points=[];" vertex="1" connectable="0" parent="-4F1bldaN1rVmbEE7iW6-71">
          <mxGeometry x="-0.0827" relative="1" as="geometry">
            <mxPoint y="-2" as="offset" />
          </mxGeometry>
        </mxCell>
        <mxCell id="-4F1bldaN1rVmbEE7iW6-70" value="&lt;span style=&quot;font-family: &amp;quot;Segoe WPC&amp;quot;, &amp;quot;Segoe UI&amp;quot;, sans-serif; font-size: 13px; text-align: left; line-height: 150%; background-color: light-dark(#ffffff, var(--ge-dark-color, #121212));&quot;&gt;&lt;font style=&quot;color: rgb(0, 0, 0);&quot;&gt;Browser&lt;/font&gt;&lt;/span&gt;&lt;div style=&quot;text-align: left; padding-left: 12px;&quot;&gt;&lt;span style=&quot;font-family: &amp;quot;Segoe WPC&amp;quot;, &amp;quot;Segoe UI&amp;quot;, sans-serif; font-size: 13px;&quot;&gt;&lt;font style=&quot;color: rgb(0, 0, 0);&quot;&gt;Parses the &lt;span style=&quot;background-color: light-dark(#ffffff, var(--ge-dark-color, #121212));&quot;&gt;HTML and constructs the DOM, which includes:&lt;/span&gt;&lt;/font&gt;&lt;/span&gt;&lt;/div&gt;&lt;div&gt;&lt;ul style=&quot;padding-left: 20px; line-height: 130%; padding-top: 0px; margin-top: 12px; margin-left: 0px;&quot;&gt;&lt;li style=&quot;text-align: left;&quot;&gt;&lt;span style=&quot;font-family: &amp;quot;Segoe WPC&amp;quot;, &amp;quot;Segoe UI&amp;quot;, sans-serif; font-size: 13px; background-color: light-dark(#ffffff, var(--ge-dark-color, #121212));&quot;&gt;&lt;font style=&quot;color: rgb(0, 0, 0);&quot;&gt;map container with&amp;nbsp;&lt;/font&gt;&lt;/span&gt;&lt;/li&gt;&lt;ul style=&quot;padding-right: 0px; line-height: 130%; padding-left: 15px;&quot;&gt;&lt;li style=&quot;text-align: left;&quot;&gt;&lt;span style=&quot;font-family: &amp;quot;Segoe WPC&amp;quot;, &amp;quot;Segoe UI&amp;quot;, sans-serif; font-size: 13px; line-height: 130%; background-color: light-dark(#ffffff, var(--ge-dark-color, #121212));&quot;&gt;&lt;font style=&quot;color: rgb(0, 0, 0);&quot;&gt;location search bar&lt;/font&gt;&lt;/span&gt;&lt;/li&gt;&lt;li style=&quot;text-align: left;&quot;&gt;&lt;span style=&quot;font-family: &amp;quot;Segoe WPC&amp;quot;, &amp;quot;Segoe UI&amp;quot;, sans-serif; font-size: 13px; line-height: 130%; background-color: light-dark(#ffffff, var(--ge-dark-color, #121212));&quot;&gt;&lt;font style=&quot;color: rgb(0, 0, 0);&quot;&gt;toggle satellite button&lt;/font&gt;&lt;/span&gt;&lt;/li&gt;&lt;li style=&quot;text-align: left;&quot;&gt;&lt;span style=&quot;font-family: &amp;quot;Segoe WPC&amp;quot;, &amp;quot;Segoe UI&amp;quot;, sans-serif; font-size: 13px; line-height: 130%; background-color: light-dark(#ffffff, var(--ge-dark-color, #121212));&quot;&gt;&lt;font style=&quot;color: rgb(0, 0, 0);&quot;&gt;add report button&lt;/font&gt;&lt;/span&gt;&lt;/li&gt;&lt;li style=&quot;text-align: left;&quot;&gt;&lt;span style=&quot;font-family: &amp;quot;Segoe WPC&amp;quot;, &amp;quot;Segoe UI&amp;quot;, sans-serif; font-size: 13px; background-color: light-dark(#ffffff, var(--ge-dark-color, #121212));&quot;&gt;&lt;font style=&quot;color: rgb(0, 0, 0);&quot;&gt;message container for HTMX OOB swaps&lt;/font&gt;&lt;/span&gt;&lt;/li&gt;&lt;/ul&gt;&lt;li style=&quot;text-align: left;&quot;&gt;&lt;span style=&quot;font-size: 13px; font-family: &amp;quot;Segoe WPC&amp;quot;, &amp;quot;Segoe UI&amp;quot;, sans-serif; line-height: 130%; background-color: light-dark(#ffffff, var(--ge-dark-color, #121212));&quot;&gt;&lt;font style=&quot;color: rgb(0, 0, 0);&quot;&gt;HTMX enabled form&lt;/font&gt;&lt;/span&gt;&lt;/li&gt;&lt;li style=&quot;text-align: left;&quot;&gt;&lt;span style=&quot;font-size: 13px; font-family: &amp;quot;Segoe WPC&amp;quot;, &amp;quot;Segoe UI&amp;quot;, sans-serif; line-height: 130%; background-color: light-dark(#ffffff, var(--ge-dark-color, #121212));&quot;&gt;&lt;font style=&quot;color: rgb(0, 0, 0);&quot;&gt;reports data&lt;/font&gt;&lt;/span&gt;&lt;/li&gt;&lt;li style=&quot;text-align: left;&quot;&gt;&lt;span style=&quot;font-size: 13px; font-family: &amp;quot;Segoe WPC&amp;quot;, &amp;quot;Segoe UI&amp;quot;, sans-serif; line-height: 130%; background-color: light-dark(#ffffff, var(--ge-dark-color, #121212));&quot;&gt;&lt;font style=&quot;color: rgb(0, 0, 0);&quot;&gt;container for new report data&lt;/font&gt;&lt;/span&gt;&lt;/li&gt;&lt;li style=&quot;text-align: left;&quot;&gt;&lt;span style=&quot;font-size: 13px; font-family: &amp;quot;Segoe WPC&amp;quot;, &amp;quot;Segoe UI&amp;quot;, sans-serif; line-height: 130%; background-color: light-dark(#ffffff, var(--ge-dark-color, #121212));&quot;&gt;&lt;font style=&quot;color: rgb(0, 0, 0);&quot;&gt;container for updated report data&lt;/font&gt;&lt;/span&gt;&lt;/li&gt;&lt;/ul&gt;&lt;/div&gt;" style="whiteSpace=wrap;html=1;" vertex="1" parent="1">
          <mxGeometry x="-20" y="140" width="210" height="260" as="geometry" />
        </mxCell>
        <mxCell id="-4F1bldaN1rVmbEE7iW6-73" value="&lt;ol style=&quot;padding-inline-start: 28px; font-family: &amp;quot;Segoe WPC&amp;quot;, &amp;quot;Segoe UI&amp;quot;, sans-serif; font-size: 13px; text-align: start;&quot;&gt;&lt;p style=&quot;margin: 0px 0px 16px;&quot;&gt;&lt;span&gt;&lt;font style=&quot;color: rgb(0, 0, 0);&quot;&gt;If you then submit the form, an HTMX POST hits the same URL:&lt;/font&gt;&lt;/span&gt;&lt;/p&gt;&lt;div style=&quot;&quot;&gt;&lt;ol style=&quot;padding-inline-start: 28px;&quot;&gt;&lt;li style=&quot;&quot;&gt;&lt;font style=&quot;color: rgb(0, 0, 0); background-color: light-dark(#ffffff, var(--ge-dark-color, #121212));&quot;&gt;HTMX processes the partial response, swaps in the new marker and/or error message, and your map updates in-place.&lt;/font&gt;&lt;/li&gt;&lt;li style=&quot;&quot;&gt;&lt;/li&gt;&lt;/ol&gt;&lt;/div&gt;&lt;/ol&gt;" style="whiteSpace=wrap;html=1;" vertex="1" parent="1">
          <mxGeometry x="1290" y="-27" width="470" height="150" as="geometry" />
        </mxCell>
        <mxCell id="-4F1bldaN1rVmbEE7iW6-181" value="" style="edgeStyle=orthogonalEdgeStyle;rounded=0;orthogonalLoop=1;jettySize=auto;html=1;entryX=1;entryY=0.75;entryDx=0;entryDy=0;exitX=0.009;exitY=0.712;exitDx=0;exitDy=0;exitPerimeter=0;" edge="1" parent="1" source="-4F1bldaN1rVmbEE7iW6-74" target="-4F1bldaN1rVmbEE7iW6-76">
          <mxGeometry relative="1" as="geometry" />
        </mxCell>
        <mxCell id="-4F1bldaN1rVmbEE7iW6-74" value="&lt;div&gt;&lt;font style=&quot;color: rgb(0, 0, 0);&quot;&gt;&lt;font&gt;forms&lt;/font&gt;&lt;span&gt;.py&lt;/span&gt;&lt;/font&gt;&lt;/div&gt;&lt;div&gt;&lt;span style=&quot;background-color: transparent;&quot;&gt;&lt;font style=&quot;color: rgb(255, 0, 0);&quot;&gt;ReportForm()&lt;/font&gt;&lt;/span&gt;&lt;/div&gt;&lt;div style=&quot;text-align: left;&quot;&gt;&lt;ul style=&quot;padding-left: 20px; padding-right: 6px; margin-left: 0px; margin-top: 6px; margin-bottom: 6px;&quot;&gt;&lt;li&gt;&lt;span style=&quot;background-color: transparent; color: light-dark(rgb(0, 0, 0), rgb(255, 255, 255));&quot;&gt;Has list of fields&lt;/span&gt;&lt;/li&gt;&lt;li&gt;&lt;span style=&quot;background-color: transparent; color: light-dark(rgb(0, 0, 0), rgb(255, 255, 255));&quot;&gt;Gets field types from &lt;/span&gt;&lt;font style=&quot;background-color: transparent; color: rgb(255, 0, 0);&quot;&gt;Report()&lt;/font&gt;&lt;span style=&quot;background-color: transparent; color: light-dark(rgb(0, 0, 0), rgb(255, 255, 255));&quot;&gt; model&lt;/span&gt;&lt;/li&gt;&lt;li&gt;&lt;span style=&quot;background-color: transparent; color: light-dark(rgb(0, 0, 0), rgb(255, 255, 255));&quot;&gt;Creates delete photo field&lt;/span&gt;&lt;/li&gt;&lt;li&gt;&lt;span style=&quot;background-color: transparent; color: light-dark(rgb(0, 0, 0), rgb(255, 255, 255));&quot;&gt;Builds layout for Crispy forms&lt;/span&gt;&lt;/li&gt;&lt;/ul&gt;&lt;/div&gt;" style="whiteSpace=wrap;html=1;rounded=0;" vertex="1" parent="1">
          <mxGeometry x="950" y="40" width="233" height="130" as="geometry" />
        </mxCell>
        <mxCell id="-4F1bldaN1rVmbEE7iW6-182" value="" style="edgeStyle=orthogonalEdgeStyle;rounded=0;orthogonalLoop=1;jettySize=auto;html=1;" edge="1" parent="1" source="-4F1bldaN1rVmbEE7iW6-76" target="-4F1bldaN1rVmbEE7iW6-74">
          <mxGeometry relative="1" as="geometry" />
        </mxCell>
        <mxCell id="-4F1bldaN1rVmbEE7iW6-76" value="&lt;div&gt;models.py&lt;/div&gt;&lt;div&gt;&lt;br&gt;&lt;/div&gt;&lt;div&gt;&lt;font&gt;&lt;font face=&quot;Lucida Console&quot; style=&quot;color: rgb(126, 166, 224);&quot;&gt;reverse_geocode(lat,lon)&lt;/font&gt;&lt;/font&gt;&lt;/div&gt;&lt;div&gt;&lt;font&gt;&lt;font face=&quot;Lucida Console&quot; style=&quot;color: rgb(126, 166, 224);&quot;&gt;save()&lt;/font&gt;&lt;/font&gt;&lt;/div&gt;" style="whiteSpace=wrap;html=1;rounded=0;strokeColor=#FF0000;" vertex="1" parent="1">
          <mxGeometry x="714" y="70" width="186" height="80" as="geometry" />
        </mxCell>
        <mxCell id="-4F1bldaN1rVmbEE7iW6-90" style="edgeStyle=orthogonalEdgeStyle;rounded=0;orthogonalLoop=1;jettySize=auto;html=1;exitX=0.5;exitY=1;exitDx=0;exitDy=0;" edge="1" parent="1">
          <mxGeometry relative="1" as="geometry">
            <mxPoint x="236.00000000000045" y="10" as="sourcePoint" />
            <mxPoint x="236.00000000000045" y="10" as="targetPoint" />
          </mxGeometry>
        </mxCell>
        <mxCell id="-4F1bldaN1rVmbEE7iW6-93" value="PostgreSQL&amp;nbsp;&lt;span style=&quot;background-color: transparent; color: light-dark(rgb(0, 0, 0), rgb(255, 255, 255));&quot;&gt;Database&lt;/span&gt;" style="rounded=0;whiteSpace=wrap;html=1;" vertex="1" parent="1">
          <mxGeometry x="714" y="20" width="186" height="30" as="geometry" />
        </mxCell>
        <mxCell id="-4F1bldaN1rVmbEE7iW6-95" value="" style="endArrow=none;html=1;rounded=0;startFill=1;startArrow=classic;exitX=0;exitY=0.25;exitDx=0;exitDy=0;entryX=1;entryY=0.25;entryDx=0;entryDy=0;" edge="1" parent="1" source="-4F1bldaN1rVmbEE7iW6-93" target="-4F1bldaN1rVmbEE7iW6-51">
          <mxGeometry width="50" height="50" relative="1" as="geometry">
            <mxPoint x="699" y="25" as="sourcePoint" />
            <mxPoint x="640" y="25" as="targetPoint" />
          </mxGeometry>
        </mxCell>
        <mxCell id="-4F1bldaN1rVmbEE7iW6-97" value="SQL" style="edgeLabel;html=1;align=center;verticalAlign=middle;resizable=0;points=[];" vertex="1" connectable="0" parent="-4F1bldaN1rVmbEE7iW6-95">
          <mxGeometry x="0.0276" y="1" relative="1" as="geometry">
            <mxPoint x="3" y="-1" as="offset" />
          </mxGeometry>
        </mxCell>
        <mxCell id="-4F1bldaN1rVmbEE7iW6-96" value="" style="endArrow=classic;html=1;rounded=0;entryX=1;entryY=0.75;entryDx=0;entryDy=0;exitX=0;exitY=0.75;exitDx=0;exitDy=0;startFill=0;startArrow=none;endFill=1;" edge="1" parent="1" source="-4F1bldaN1rVmbEE7iW6-93" target="-4F1bldaN1rVmbEE7iW6-51">
          <mxGeometry width="50" height="50" relative="1" as="geometry">
            <mxPoint x="363.53999999999996" y="-230.5" as="sourcePoint" />
            <mxPoint x="313.00000000000045" y="-180.5" as="targetPoint" />
          </mxGeometry>
        </mxCell>
        <mxCell id="-4F1bldaN1rVmbEE7iW6-98" value="reports" style="edgeLabel;html=1;align=center;verticalAlign=middle;resizable=0;points=[];" vertex="1" connectable="0" parent="-4F1bldaN1rVmbEE7iW6-96">
          <mxGeometry x="-0.1769" relative="1" as="geometry">
            <mxPoint x="-6" y="-1" as="offset" />
          </mxGeometry>
        </mxCell>
        <mxCell id="-4F1bldaN1rVmbEE7iW6-107" value="" style="edgeStyle=orthogonalEdgeStyle;rounded=0;orthogonalLoop=1;jettySize=auto;html=1;entryX=1;entryY=0.75;entryDx=0;entryDy=0;exitX=-0.002;exitY=0.658;exitDx=0;exitDy=0;exitPerimeter=0;" edge="1" parent="1" source="-4F1bldaN1rVmbEE7iW6-76" target="-4F1bldaN1rVmbEE7iW6-52">
          <mxGeometry relative="1" as="geometry">
            <mxPoint x="841.0000000000005" y="185.9999999999991" as="sourcePoint" />
            <mxPoint x="1113.2999999999997" y="179.53099999999995" as="targetPoint" />
          </mxGeometry>
        </mxCell>
        <mxCell id="-4F1bldaN1rVmbEE7iW6-108" value="place_name" style="edgeLabel;html=1;align=center;verticalAlign=middle;resizable=0;points=[];" vertex="1" connectable="0" parent="-4F1bldaN1rVmbEE7iW6-107">
          <mxGeometry x="-0.0459" y="4" relative="1" as="geometry">
            <mxPoint y="-5" as="offset" />
          </mxGeometry>
        </mxCell>
        <mxCell id="-4F1bldaN1rVmbEE7iW6-146" value="&lt;span style=&quot;text-align: left; background-color: light-dark(#ffffff, var(--ge-dark-color, #121212));&quot;&gt;&lt;font face=&quot;Lucida Console&quot; style=&quot;color: rgb(0, 0, 0);&quot;&gt;LoginRequiredMixin&lt;/font&gt;&lt;/span&gt;&lt;div&gt;&lt;span style=&quot;font-family: &amp;quot;Segoe WPC&amp;quot;, &amp;quot;Segoe UI&amp;quot;, sans-serif; font-size: 13px; text-align: left; background-color: light-dark(#ffffff, var(--ge-dark-color, #121212));&quot;&gt;&lt;br&gt;&lt;/span&gt;&lt;/div&gt;&lt;div&gt;&lt;span style=&quot;font-family: &amp;quot;Segoe WPC&amp;quot;, &amp;quot;Segoe UI&amp;quot;, sans-serif; font-size: 13px; text-align: left; background-color: light-dark(#ffffff, var(--ge-dark-color, #121212));&quot;&gt;&lt;br&gt;&lt;/span&gt;&lt;/div&gt;&lt;div&gt;&lt;span style=&quot;font-family: &amp;quot;Segoe WPC&amp;quot;, &amp;quot;Segoe UI&amp;quot;, sans-serif; font-size: 13px; text-align: left; background-color: light-dark(#ffffff, var(--ge-dark-color, #121212));&quot;&gt;&lt;br&gt;&lt;/span&gt;&lt;/div&gt;&lt;div&gt;&lt;span style=&quot;font-family: &amp;quot;Segoe WPC&amp;quot;, &amp;quot;Segoe UI&amp;quot;, sans-serif; font-size: 13px; text-align: left; background-color: light-dark(#ffffff, var(--ge-dark-color, #121212));&quot;&gt;&lt;br&gt;&lt;/span&gt;&lt;/div&gt;&lt;div&gt;&lt;br&gt;&lt;/div&gt;&lt;div&gt;&lt;span style=&quot;font-family: &amp;quot;Segoe WPC&amp;quot;, &amp;quot;Segoe UI&amp;quot;, sans-serif; font-size: 13px; text-align: left; background-color: light-dark(#ffffff, var(--ge-dark-color, #121212));&quot;&gt;&lt;br&gt;&lt;/span&gt;&lt;/div&gt;&lt;div&gt;&lt;span style=&quot;font-family: &amp;quot;Segoe WPC&amp;quot;, &amp;quot;Segoe UI&amp;quot;, sans-serif; font-size: 13px; text-align: left; background-color: light-dark(#ffffff, var(--ge-dark-color, #121212));&quot;&gt;&lt;br&gt;&lt;/span&gt;&lt;/div&gt;" style="rounded=0;whiteSpace=wrap;html=1;" vertex="1" parent="1">
          <mxGeometry x="354" y="-172" width="266" height="112" as="geometry" />
        </mxCell>
        <mxCell id="-4F1bldaN1rVmbEE7iW6-127" value="&lt;span&gt;&lt;span style=&quot;font-family: &amp;quot;Segoe WPC&amp;quot;, &amp;quot;Segoe UI&amp;quot;, sans-serif; font-size: 13px; text-align: start;&quot;&gt;HTMX “Out‑of‑Band” (OOB) swaps let you update parts of the DOM other than your primary&amp;nbsp;&lt;/span&gt;&lt;code style=&quot;color: var(--vscode-textPreformat-foreground); border-radius: 4px; font-family: var(--monaco-monospace-font); padding: 1px 3px; white-space-collapse: preserve; text-align: start;&quot;&gt;hx-target&lt;/code&gt;&lt;span style=&quot;font-family: &amp;quot;Segoe WPC&amp;quot;, &amp;quot;Segoe UI&amp;quot;, sans-serif; font-size: 13px; text-align: start;&quot;&gt;&amp;nbsp;in a single response.&lt;/span&gt;&lt;/span&gt;" style="rounded=1;whiteSpace=wrap;html=1;absoluteArcSize=1;arcSize=14;strokeWidth=2;" vertex="1" parent="1">
          <mxGeometry x="-510" y="23" width="280" height="100" as="geometry" />
        </mxCell>
        <mxCell id="-4F1bldaN1rVmbEE7iW6-143" value="remaining js&lt;div&gt;contact-form.js&lt;/div&gt;&lt;div&gt;delete-report.js&lt;/div&gt;&lt;div&gt;edit-report.js&lt;/div&gt;&lt;div&gt;login.js&lt;/div&gt;&lt;div&gt;report-detail.js&lt;/div&gt;&lt;div&gt;sign-up-form.js&lt;/div&gt;" style="rounded=0;whiteSpace=wrap;html=1;align=left;" vertex="1" parent="1">
          <mxGeometry x="1300" y="131" width="285" height="290" as="geometry" />
        </mxCell>
        <mxCell id="-4F1bldaN1rVmbEE7iW6-150" value="" style="edgeStyle=orthogonalEdgeStyle;rounded=0;orthogonalLoop=1;jettySize=auto;html=1;" edge="1" parent="1" source="-4F1bldaN1rVmbEE7iW6-40" target="-4F1bldaN1rVmbEE7iW6-149">
          <mxGeometry relative="1" as="geometry" />
        </mxCell>
        <mxCell id="-4F1bldaN1rVmbEE7iW6-151" value="no" style="edgeLabel;html=1;align=center;verticalAlign=middle;resizable=0;points=[];" vertex="1" connectable="0" parent="-4F1bldaN1rVmbEE7iW6-150">
          <mxGeometry x="0.2359" y="-3" relative="1" as="geometry">
            <mxPoint y="2" as="offset" />
          </mxGeometry>
        </mxCell>
        <mxCell id="-4F1bldaN1rVmbEE7iW6-40" value="&lt;div&gt;is user&lt;div&gt;&lt;span style=&quot;background-color: transparent; color: light-dark(rgb(0, 0, 0), rgb(255, 255, 255));&quot;&gt;logged&lt;/span&gt;&lt;div&gt;in?&lt;/div&gt;&lt;/div&gt;&lt;/div&gt;" style="rhombus;whiteSpace=wrap;html=1;" vertex="1" parent="1">
          <mxGeometry x="523" y="-160" width="90" height="90" as="geometry" />
        </mxCell>
        <mxCell id="-4F1bldaN1rVmbEE7iW6-62" value="" style="edgeStyle=orthogonalEdgeStyle;rounded=0;orthogonalLoop=1;jettySize=auto;html=1;entryX=0.781;entryY=0.001;entryDx=0;entryDy=0;entryPerimeter=0;" edge="1" parent="1" source="-4F1bldaN1rVmbEE7iW6-40" target="-4F1bldaN1rVmbEE7iW6-37">
          <mxGeometry relative="1" as="geometry">
            <mxPoint x="570" y="-30" as="targetPoint" />
          </mxGeometry>
        </mxCell>
        <mxCell id="-4F1bldaN1rVmbEE7iW6-63" value="yes" style="edgeLabel;html=1;align=center;verticalAlign=middle;resizable=0;points=[];labelBorderColor=none;" vertex="1" connectable="0" parent="-4F1bldaN1rVmbEE7iW6-62">
          <mxGeometry x="-0.2667" y="-2" relative="1" as="geometry">
            <mxPoint y="-2" as="offset" />
          </mxGeometry>
        </mxCell>
        <mxCell id="-4F1bldaN1rVmbEE7iW6-153" value="" style="edgeStyle=orthogonalEdgeStyle;rounded=0;orthogonalLoop=1;jettySize=auto;html=1;entryX=1;entryY=0.75;entryDx=0;entryDy=0;" edge="1" parent="1" source="-4F1bldaN1rVmbEE7iW6-149" target="-4F1bldaN1rVmbEE7iW6-152">
          <mxGeometry relative="1" as="geometry" />
        </mxCell>
        <mxCell id="-4F1bldaN1rVmbEE7iW6-154" value="HTTP&lt;div&gt;response&lt;/div&gt;&lt;div&gt;302&lt;/div&gt;" style="edgeLabel;html=1;align=center;verticalAlign=middle;resizable=0;points=[];" vertex="1" connectable="0" parent="-4F1bldaN1rVmbEE7iW6-153">
          <mxGeometry x="-0.0402" y="3" relative="1" as="geometry">
            <mxPoint as="offset" />
          </mxGeometry>
        </mxCell>
        <mxCell id="-4F1bldaN1rVmbEE7iW6-149" value="&lt;span style=&quot;font-family: Consolas, &amp;quot;Courier New&amp;quot;, monospace; text-align: left; white-space-collapse: preserve;&quot;&gt;&lt;font style=&quot;font-size: 11px;&quot;&gt;redirect_to_login()&lt;/font&gt;&lt;/span&gt;" style="whiteSpace=wrap;html=1;" vertex="1" parent="1">
          <mxGeometry x="363" y="-130" width="130" height="30" as="geometry" />
        </mxCell>
        <mxCell id="-4F1bldaN1rVmbEE7iW6-156" value="" style="edgeStyle=orthogonalEdgeStyle;rounded=0;orthogonalLoop=1;jettySize=auto;html=1;entryX=0;entryY=0.75;entryDx=0;entryDy=0;exitX=1;exitY=0.25;exitDx=0;exitDy=0;" edge="1" parent="1" source="-4F1bldaN1rVmbEE7iW6-152" target="-4F1bldaN1rVmbEE7iW6-172">
          <mxGeometry relative="1" as="geometry">
            <mxPoint x="-88" y="-106.5" as="sourcePoint" />
            <mxPoint x="-191" y="-107" as="targetPoint" />
          </mxGeometry>
        </mxCell>
        <mxCell id="-4F1bldaN1rVmbEE7iW6-163" value="HTTP&lt;div&gt;GET&lt;br&gt;&lt;div&gt;request&lt;/div&gt;&lt;/div&gt;" style="edgeLabel;html=1;align=center;verticalAlign=middle;resizable=0;points=[];" vertex="1" connectable="0" parent="-4F1bldaN1rVmbEE7iW6-156">
          <mxGeometry x="-0.4926" relative="1" as="geometry">
            <mxPoint x="9" y="2" as="offset" />
          </mxGeometry>
        </mxCell>
        <mxCell id="-4F1bldaN1rVmbEE7iW6-152" value="&lt;span style=&quot;font-family: &amp;quot;Segoe WPC&amp;quot;, &amp;quot;Segoe UI&amp;quot;, sans-serif; text-align: left; background-color: light-dark(#ffffff, var(--ge-dark-color, #121212));&quot;&gt;&lt;font&gt;&amp;nbsp;Redirect to login&lt;/font&gt;&lt;/span&gt;&lt;div&gt;&lt;span style=&quot;background-color: var(--vscode-textPreformat-background); color: var(--vscode-textPreformat-foreground); font-family: var(--monaco-monospace-font); text-align: left; white-space-collapse: preserve;&quot;&gt;&lt;font&gt;Browser requests login &lt;/font&gt;&lt;/span&gt;&lt;/div&gt;&lt;font&gt;&lt;span style=&quot;font-family: &amp;quot;Segoe WPC&amp;quot;, &amp;quot;Segoe UI&amp;quot;, sans-serif; text-align: left; background-color: light-dark(#ffffff, var(--ge-dark-color, #121212));&quot;&gt;page&lt;/span&gt;&lt;code style=&quot;color: var(--vscode-textPreformat-foreground); white-space-collapse: preserve; background-color: var(--vscode-textPreformat-background); border-radius: 4px; font-family: var(--monaco-monospace-font); padding: 1px 3px; text-align: left;&quot;&gt;/accounts/login/&lt;/code&gt;&lt;br style=&quot;font-family: &amp;quot;Segoe WPC&amp;quot;, &amp;quot;Segoe UI&amp;quot;, sans-serif; text-align: left; background-color: light-dark(#ffffff, var(--ge-dark-color, #121212));&quot;&gt;&lt;/font&gt;&lt;div&gt;&lt;code style=&quot;background-color: var(--vscode-textPreformat-background); border-radius: 4px; color: var(--vscode-textPreformat-foreground); font-family: var(--monaco-monospace-font); padding: 1px 3px; white-space-collapse: preserve; text-align: left;&quot;&gt;&lt;font&gt;&lt;span style=&quot;color: light-dark(rgb(0, 0, 0), rgb(255, 255, 255)); white-space-collapse: collapse; font-family: &amp;quot;Segoe WPC&amp;quot;, &amp;quot;Segoe UI&amp;quot;, sans-serif; background-color: light-dark(#ffffff, var(--ge-dark-color, #121212));&quot;&gt;with&lt;/span&gt;&lt;code style=&quot;background-color: var(--vscode-textPreformat-background); color: var(--vscode-textPreformat-foreground); border-radius: 4px; font-family: var(--monaco-monospace-font); padding: 1px 3px;&quot;&gt;?next=/map/&lt;/code&gt; &lt;/font&gt;&lt;/code&gt;&lt;/div&gt;" style="whiteSpace=wrap;html=1;" vertex="1" parent="1">
          <mxGeometry x="-100" y="-240" width="154" height="73" as="geometry" />
        </mxCell>
        <mxCell id="-4F1bldaN1rVmbEE7iW6-161" value="" style="edgeStyle=orthogonalEdgeStyle;rounded=0;orthogonalLoop=1;jettySize=auto;html=1;entryX=1;entryY=0.5;entryDx=0;entryDy=0;exitX=0;exitY=0.25;exitDx=0;exitDy=0;" edge="1" parent="1" source="-4F1bldaN1rVmbEE7iW6-155" target="-4F1bldaN1rVmbEE7iW6-165">
          <mxGeometry relative="1" as="geometry">
            <mxPoint x="-162.86" y="-33.237368421052494" as="sourcePoint" />
            <mxPoint x="-85.99599999999997" y="-14.76999999999957" as="targetPoint" />
            <Array as="points">
              <mxPoint x="340" y="-320" />
              <mxPoint x="63" y="-320" />
            </Array>
          </mxGeometry>
        </mxCell>
        <mxCell id="-4F1bldaN1rVmbEE7iW6-166" value="&lt;font style=&quot;font-size: 12px;&quot;&gt;HTTP&lt;/font&gt;&lt;div&gt;&lt;font style=&quot;font-size: 12px;&quot;&gt;response&lt;/font&gt;&lt;/div&gt;&lt;div&gt;&lt;font style=&quot;font-size: 12px;&quot;&gt;200&lt;/font&gt;&lt;/div&gt;" style="edgeLabel;html=1;align=center;verticalAlign=middle;resizable=0;points=[];" vertex="1" connectable="0" parent="-4F1bldaN1rVmbEE7iW6-161">
          <mxGeometry x="-0.3438" y="2" relative="1" as="geometry">
            <mxPoint as="offset" />
          </mxGeometry>
        </mxCell>
        <mxCell id="-4F1bldaN1rVmbEE7iW6-155" value="&lt;div&gt;&lt;span style=&quot;background-color: light-dark(#ffffff, var(--ge-dark-color, #121212)); text-align: start;&quot;&gt;&lt;font style=&quot;color: light-dark(rgb(0, 0, 255), rgb(255, 255, 255));&quot; face=&quot;Lucida Console&quot;&gt;LoginView&lt;/font&gt;&lt;/span&gt;&lt;/div&gt;&lt;div&gt;&lt;span style=&quot;background-color: light-dark(#ffffff, var(--ge-dark-color, #121212)); text-align: start; color: light-dark(rgb(0, 0, 0), rgb(255, 255, 255));&quot;&gt;&lt;font face=&quot;Helvetica&quot;&gt;gets&lt;/font&gt;&lt;/span&gt;&lt;/div&gt;&lt;div&gt;&lt;span style=&quot;background-color: light-dark(#ffffff, var(--ge-dark-color, #121212)); font-family: Consolas, &amp;quot;Courier New&amp;quot;, monospace; white-space: pre;&quot;&gt;&lt;font style=&quot;color: light-dark(rgb(0, 0, 255), rgb(35, 139, 47));&quot;&gt;CustomLoginForm&lt;/font&gt;&lt;/span&gt;&lt;span style=&quot;background-color: light-dark(#ffffff, var(--ge-dark-color, #121212)); color: light-dark(rgb(0, 0, 0), rgb(255, 255, 255)); font-family: Consolas, &amp;quot;Courier New&amp;quot;, monospace; white-space: pre;&quot;&gt;(&lt;/span&gt;&lt;span style=&quot;background-color: light-dark(#ffffff, var(--ge-dark-color, #121212)); font-family: Consolas, &amp;quot;Courier New&amp;quot;, monospace; white-space: pre;&quot;&gt;&lt;font style=&quot;color: rgb(0, 0, 255);&quot;&gt;LoginForm&lt;/font&gt;&lt;/span&gt;&lt;span style=&quot;background-color: light-dark(#ffffff, var(--ge-dark-color, #121212)); color: light-dark(rgb(0, 0, 0), rgb(255, 255, 255)); font-family: Consolas, &amp;quot;Courier New&amp;quot;, monospace; white-space: pre;&quot;&gt;)&lt;/span&gt;&lt;/div&gt;&lt;div&gt;&lt;span style=&quot;background-color: light-dark(#ffffff, var(--ge-dark-color, #121212)); color: light-dark(rgb(0, 0, 0), rgb(255, 255, 255)); text-align: start;&quot;&gt;&lt;span style=&quot;text-align: center; white-space: pre;&quot;&gt;renders t&lt;/span&gt;&lt;/span&gt;&lt;span style=&quot;background-color: light-dark(#ffffff, var(--ge-dark-color, #121212)); color: light-dark(rgb(0, 0, 0), rgb(255, 255, 255));&quot;&gt;emplate&amp;nbsp;&lt;/span&gt;&lt;span style=&quot;background-color: light-dark(#ffffff, var(--ge-dark-color, #121212));&quot;&gt;&lt;font style=&quot;color: light-dark(rgb(127, 0, 255), rgb(255, 255, 255));&quot;&gt;login.html&lt;/font&gt;&lt;/span&gt;&lt;/div&gt;" style="whiteSpace=wrap;html=1;strokeColor=#0000FF;" vertex="1" parent="1">
          <mxGeometry x="340" y="-340" width="300" height="97" as="geometry" />
        </mxCell>
        <mxCell id="-4F1bldaN1rVmbEE7iW6-162" value="View renders&lt;div&gt;&lt;span style=&quot;background-color: var(--vscode-textPreformat-background); color: var(--vscode-textPreformat-foreground); font-family: var(--monaco-monospace-font); white-space-collapse: preserve;&quot;&gt;Template&lt;/span&gt;&lt;div&gt;&lt;div style=&quot;text-wrap-mode: nowrap;&quot;&gt;&lt;span style=&quot;background-color: var(--vscode-textPreformat-background); color: var(--vscode-textPreformat-foreground); font-family: var(--monaco-monospace-font); white-space: pre-wrap;&quot;&gt;map_reports.html&lt;/span&gt;&lt;/div&gt;&lt;/div&gt;&lt;/div&gt;&lt;div style=&quot;text-wrap-mode: nowrap;&quot;&gt;&lt;ul style=&quot;padding-left: 20px;&quot;&gt;&lt;li&gt;&lt;span style=&quot;background-color: var(--vscode-textPreformat-background); color: var(--vscode-textPreformat-foreground); font-family: var(--monaco-monospace-font); text-align: left;&quot;&gt;HTMX enabled new report form&lt;/span&gt;&lt;/li&gt;&lt;li&gt;&lt;span style=&quot;background-color: transparent; color: light-dark(rgb(0, 0, 0), rgb(255, 255, 255)); white-space: pre-wrap; text-align: left;&quot;&gt;Embeds the reports data as json&lt;/span&gt;&lt;/li&gt;&lt;/ul&gt;&lt;/div&gt;" style="rounded=0;whiteSpace=wrap;html=1;" vertex="1" parent="1">
          <mxGeometry x="390" y="170" width="229" height="100" as="geometry" />
        </mxCell>
        <mxCell id="-4F1bldaN1rVmbEE7iW6-165" value="Displays Login Page&lt;div&gt;Login form submitted&lt;/div&gt;" style="rounded=0;whiteSpace=wrap;html=1;" vertex="1" parent="1">
          <mxGeometry x="-101" y="-350" width="152" height="60" as="geometry" />
        </mxCell>
        <mxCell id="-4F1bldaN1rVmbEE7iW6-173" value="" style="edgeStyle=orthogonalEdgeStyle;rounded=0;orthogonalLoop=1;jettySize=auto;html=1;entryX=0.02;entryY=0.818;entryDx=0;entryDy=0;entryPerimeter=0;exitX=1;exitY=0.25;exitDx=0;exitDy=0;" edge="1" parent="1" source="-4F1bldaN1rVmbEE7iW6-172" target="-4F1bldaN1rVmbEE7iW6-155">
          <mxGeometry relative="1" as="geometry" />
        </mxCell>
        <UserObject label="&lt;div style=&quot;forced-color-adjust: none; font-family: Helvetica; font-size: 12px; font-style: normal; font-variant-ligatures: normal; font-variant-caps: normal; font-weight: 400; letter-spacing: normal; orphans: 2; text-align: center; text-indent: 0px; text-transform: none; widows: 2; word-spacing: 0px; -webkit-text-stroke-width: 0px; white-space: normal; text-decoration-thickness: initial; text-decoration-style: initial; text-decoration-color: initial; box-shadow: none !important; color: rgb(255, 255, 255);&quot;&gt;&lt;span style=&quot;background-color: light-dark(#ffffff, var(--ge-dark-color, #121212));&quot;&gt;&lt;font style=&quot;color: rgb(0, 0, 0);&quot;&gt;urls.py&lt;/font&gt;&lt;/span&gt;&lt;/div&gt;&lt;div style=&quot;forced-color-adjust: none; font-family: Helvetica; font-size: 12px; font-style: normal; font-variant-ligatures: normal; font-variant-caps: normal; font-weight: 400; letter-spacing: normal; orphans: 2; text-align: center; text-indent: 0px; text-transform: none; widows: 2; word-spacing: 0px; -webkit-text-stroke-width: 0px; white-space: normal; text-decoration-thickness: initial; text-decoration-style: initial; text-decoration-color: initial; box-shadow: none !important; color: rgb(255, 255, 255);&quot;&gt;&lt;span style=&quot;color: rgb(0, 0, 0); background-color: light-dark(#ffffff, var(--ge-dark-color, #121212)); font-family: &amp;quot;Segoe WPC&amp;quot;, &amp;quot;Segoe UI&amp;quot;, sans-serif; font-size: 13px; text-align: start;&quot;&gt;allauth.account.views.&lt;/span&gt;&lt;/div&gt;&lt;div&gt;&lt;span style=&quot;font-family: &amp;quot;Segoe WPC&amp;quot;, &amp;quot;Segoe UI&amp;quot;, sans-serif; font-size: 13px; text-align: start; background-color: light-dark(#ffffff, var(--ge-dark-color, #121212));&quot;&gt;&lt;font style=&quot;color: rgb(0, 0, 0);&quot;&gt;LoginView&lt;/font&gt;&lt;/span&gt;&lt;/div&gt;" id="-4F1bldaN1rVmbEE7iW6-172">
          <mxCell style="rounded=0;whiteSpace=wrap;html=1;" vertex="1" parent="1">
            <mxGeometry x="122" y="-281" width="160" height="80" as="geometry" />
          </mxCell>
        </UserObject>
        <mxCell id="-4F1bldaN1rVmbEE7iW6-186" value="&lt;div style=&quot;text-align: left; padding-left: 12px;&quot;&gt;&lt;span style=&quot;font-family: &amp;quot;Segoe WPC&amp;quot;, &amp;quot;Segoe UI&amp;quot;, sans-serif; font-size: 13px; color: light-dark(rgb(0, 0, 0), rgb(255, 255, 255));&quot;&gt;map-reports.js&lt;/span&gt;&lt;/div&gt;&lt;div style=&quot;text-align: left; font-size: 14px; line-height: 19px; white-space-collapse: preserve; padding-left: 12px;&quot;&gt;&lt;span style=&quot;font-family: Consolas, &amp;quot;Courier New&amp;quot;, monospace;&quot;&gt;&lt;span style=&quot;color: rgb(220, 220, 170); background-color: light-dark(#ffffff, var(--ge-dark-color, #121212));&quot;&gt;&lt;br&gt;&lt;/span&gt;&lt;/span&gt;&lt;/div&gt;&lt;div style=&quot;text-align: left; font-size: 14px; line-height: 19px; white-space-collapse: preserve; padding-left: 12px;&quot;&gt;&lt;span&gt;&lt;span style=&quot;font-family: Consolas, &amp;quot;Courier New&amp;quot;, monospace;&quot;&gt;&lt;span style=&quot;color: rgb(220, 220, 170);&quot;&gt;initialiseMap&lt;/span&gt;()&lt;/span&gt; &lt;span style=&quot;font-family: Consolas, &amp;quot;Courier New&amp;quot;, monospace;&quot;&gt;C&lt;/span&gt;&lt;font face=&quot;Helvetica&quot;&gt;reates a Maplibre GL map with custom map data attribution, adds user geolocation button&lt;/font&gt;&lt;/span&gt;&lt;/div&gt;&lt;div style=&quot;text-align: left; line-height: 19px; padding-left: 12px;&quot;&gt;&lt;span&gt;&lt;span style=&quot;font-family: Consolas, &amp;quot;Courier New&amp;quot;, monospace; font-size: 14px; white-space-collapse: preserve; color: rgb(220, 220, 170);&quot;&gt;loadUKBoundary&lt;/span&gt;&lt;span style=&quot;color: light-dark(rgb(0, 0, 0), rgb(255, 255, 255)); font-family: Consolas, &amp;quot;Courier New&amp;quot;, monospace; font-size: 14px; white-space-collapse: preserve;&quot;&gt;()&lt;/span&gt;&lt;span style=&quot;font-size: 14px; white-space-collapse: preserve;&quot;&gt; L&lt;/span&gt;&lt;span style=&quot;color: light-dark(rgb(0, 0, 0), rgb(255, 255, 255)); font-size: 14px; white-space-collapse: preserve;&quot;&gt;oads&lt;/span&gt;&lt;span style=&quot;color: light-dark(rgb(0, 0, 0), rgb(255, 255, 255)); font-size: 14px; white-space-collapse: preserve;&quot;&gt; UK boundary (GeoJSON)&lt;/span&gt;&lt;/span&gt;&lt;/div&gt;&lt;div style=&quot;line-height: 19px; padding-left: 12px;&quot;&gt;&lt;div style=&quot;text-align: left; font-family: Consolas, &amp;quot;Courier New&amp;quot;, monospace; font-size: 14px; line-height: 19px; white-space-collapse: preserve;&quot;&gt;&lt;span&gt;&lt;span style=&quot;color: rgb(220, 220, 170);&quot;&gt;addExistingReportsToMap&lt;/span&gt;()&lt;span style=&quot;color: light-dark(rgb(0, 0, 0), rgb(255, 255, 255)); font-family: Helvetica;&quot;&gt; &lt;/span&gt;&lt;font style=&quot;color: light-dark(rgb(0, 0, 0), rgb(255, 255, 255)); font-family: Helvetica;&quot; face=&quot;Helvetica&quot;&gt;Gets embedded report data, calls &lt;/font&gt;&lt;span style=&quot;color: rgb(220, 220, 170);&quot;&gt;addMarkerForReport&lt;/span&gt;&lt;span style=&quot;color: light-dark(rgb(0, 0, 0), rgb(255, 255, 255));&quot;&gt;(&lt;/span&gt;&lt;span style=&quot;color: rgb(156, 220, 254);&quot;&gt;report&lt;/span&gt;&lt;span style=&quot;color: light-dark(rgb(0, 0, 0), rgb(255, 255, 255));&quot;&gt;)&lt;/span&gt;&lt;span style=&quot;color: light-dark(rgb(0, 0, 0), rgb(255, 255, 255)); font-family: Helvetica;&quot;&gt; to add them to map, then removes data&lt;/span&gt;&lt;/span&gt;&lt;/div&gt;&lt;/div&gt;&lt;div style=&quot;line-height: 19px; padding-left: 12px;&quot;&gt;&lt;div style=&quot;line-height: 19px;&quot;&gt;&lt;div style=&quot;text-align: left; line-height: 19px;&quot;&gt;&lt;span&gt;&lt;span style=&quot;font-family: Consolas, &amp;quot;Courier New&amp;quot;, monospace; font-size: 14px; white-space-collapse: preserve; color: rgb(220, 220, 170);&quot;&gt;initialiseReasonsChoices&lt;/span&gt;&lt;font face=&quot;Consolas, Courier New, monospace&quot;&gt;&lt;span style=&quot;font-size: 14px; white-space-collapse: preserve;&quot;&gt;()&lt;/span&gt;&lt;/font&gt;&lt;span style=&quot;font-size: 14px; white-space-collapse: preserve; color: light-dark(rgb(0, 0, 0), rgb(255, 255, 255));&quot;&gt; &lt;/span&gt;&lt;span style=&quot;font-size: 14px; white-space-collapse: preserve;&quot;&gt;Turns reasons field in new report form into a Choices.js multi‑select widget&lt;/span&gt;&lt;/span&gt;&lt;/div&gt;&lt;/div&gt;&lt;div style=&quot;font-size: 14px; line-height: 19px; white-space-collapse: preserve;&quot;&gt;&lt;div style=&quot;text-align: left; line-height: 19px;&quot;&gt;&lt;span&gt;&lt;span style=&quot;font-family: Consolas, &amp;quot;Courier New&amp;quot;, monospace; color: rgb(220, 220, 170);&quot;&gt;removeCrispyClassesFromForm&lt;/span&gt;&lt;font face=&quot;Consolas, Courier New, monospace&quot;&gt;()&lt;/font&gt; Removes default crispy-forms CSS classes from the report form elements to allow custom styling&lt;/span&gt;&lt;/div&gt;&lt;div style=&quot;text-align: left; font-family: Consolas, &amp;quot;Courier New&amp;quot;, monospace; line-height: 19px;&quot;&gt;&lt;span style=&quot;background-color: light-dark(#ffffff, var(--ge-dark-color, #121212));&quot;&gt;&lt;br&gt;&lt;/span&gt;&lt;/div&gt;&lt;/div&gt;&lt;div style=&quot;text-align: left; font-family: Consolas, &amp;quot;Courier New&amp;quot;, monospace; font-size: 14px; line-height: 19px; white-space-collapse: preserve;&quot;&gt;&lt;span style=&quot;font-family: Helvetica;&quot;&gt;Event Listeners:&lt;/span&gt;&lt;/div&gt;&lt;div style=&quot;text-align: left; font-family: Consolas, &amp;quot;Courier New&amp;quot;, monospace; font-size: 14px; line-height: 19px; white-space-collapse: preserve;&quot;&gt;&lt;span&gt;&lt;span style=&quot;color: rgb(220, 220, 170);&quot;&gt;recreateCopyrightAttribution&lt;/span&gt;&lt;span style=&quot;color: light-dark(rgb(0, 0, 0), rgb(255, 255, 255));&quot;&gt;()&lt;/span&gt;&lt;span style=&quot;font-family: Helvetica; color: light-dark(rgb(0, 0, 0), rgb(255, 255, 255));&quot;&gt; Makes custom attribution responsive to map tile changes&lt;/span&gt;&lt;/span&gt;&lt;/div&gt;&lt;div style=&quot;text-align: left; font-family: Consolas, &amp;quot;Courier New&amp;quot;, monospace; font-size: 14px; line-height: 19px; white-space-collapse: preserve;&quot;&gt;&lt;span&gt;&lt;span style=&quot;color: rgb(220, 220, 170);&quot;&gt;updateAttributionControl&lt;/span&gt;&lt;span style=&quot;color: light-dark(rgb(0, 0, 0), rgb(255, 255, 255));&quot;&gt;()&lt;/span&gt;&lt;span style=&quot;font-family: Helvetica;&quot;&gt; &lt;/span&gt;&lt;span style=&quot;color: light-dark(rgb(0, 0, 0), rgb(255, 255, 255)); font-family: Helvetica;&quot;&gt;Makes custom attribution responsive to screen size&lt;/span&gt;&lt;/span&gt;&lt;/div&gt;&lt;div style=&quot;text-align: left; font-family: Consolas, &amp;quot;Courier New&amp;quot;, monospace; font-size: 14px; line-height: 19px; white-space-collapse: preserve;&quot;&gt;&lt;span&gt;&lt;span style=&quot;color: rgb(220, 220, 170);&quot;&gt;toggleMapType&lt;/span&gt;&lt;span style=&quot;color: light-dark(rgb(0, 0, 0), rgb(255, 255, 255));&quot;&gt;()&lt;/span&gt;&lt;span style=&quot;font-family: Helvetica;&quot;&gt; &lt;/span&gt;&lt;span style=&quot;color: light-dark(rgb(0, 0, 0), rgb(255, 255, 255)); font-family: Helvetica;&quot;&gt;Toggles between the Google Satellite and OS Map layer when the satellite button is clicked&lt;/span&gt;&lt;/span&gt;&lt;/div&gt;&lt;div style=&quot;font-size: 14px; line-height: 19px; white-space-collapse: preserve;&quot;&gt;&lt;div style=&quot;text-align: left; font-family: Consolas, &amp;quot;Courier New&amp;quot;, monospace; line-height: 19px;&quot;&gt;&lt;span&gt;&lt;span style=&quot;color: rgb(220, 220, 170);&quot;&gt;toggleNewReportMode&lt;/span&gt;(&lt;span style=&quot;color: rgb(156, 220, 254);&quot;&gt;addReportButton&lt;/span&gt;&lt;span style=&quot;color: light-dark(rgb(0, 0, 0), rgb(255, 255, 255));&quot;&gt;)&lt;/span&gt;&lt;span style=&quot;color: light-dark(rgb(0, 0, 0), rgb(255, 255, 255)); font-family: Helvetica;&quot;&gt; &lt;/span&gt;&lt;/span&gt;&lt;span style=&quot;color: light-dark(rgb(0, 0, 0), rgb(255, 255, 255)); font-family: Helvetica;&quot;&gt;&lt;span&gt;Toggles new report mode: changes cursor to blue cross, adds cli&lt;/span&gt;ck listener &lt;/span&gt;&lt;span style=&quot;background-color: light-dark(#ffffff, var(--ge-dark-color, #121212)); color: rgb(220, 220, 170);&quot;&gt;selectNewReportLocation&lt;/span&gt;&lt;span style=&quot;background-color: light-dark(#ffffff, var(--ge-dark-color, #121212)); color: light-dark(rgb(0, 0, 0), rgb(255, 255, 255));&quot;&gt;() &lt;/span&gt;&lt;span style=&quot;background-color: light-dark(#ffffff, var(--ge-dark-color, #121212)); color: light-dark(rgb(0, 0, 0), rgb(255, 255, 255)); font-family: Helvetica;&quot;&gt;to map, disables existing marker popups&lt;/span&gt;&lt;/div&gt;&lt;div style=&quot;line-height: 19px;&quot;&gt;&lt;div style=&quot;text-align: left; line-height: 19px;&quot;&gt;&lt;span style=&quot;font-family: Consolas, &amp;quot;Courier New&amp;quot;, monospace;&quot;&gt;&lt;span style=&quot;color: rgb(220, 220, 170);&quot;&gt;selectNewReportLocation&lt;/span&gt;(&lt;/span&gt;&lt;span style=&quot;color: rgb(156, 220, 254); font-family: Consolas, &amp;quot;Courier New&amp;quot;, monospace;&quot;&gt;e&lt;/span&gt;&lt;span style=&quot;color: light-dark(rgb(0, 0, 0), rgb(255, 255, 255)); font-family: Consolas, &amp;quot;Courier New&amp;quot;, monospace;&quot;&gt;)&lt;/span&gt;&lt;font style=&quot;color: rgb(0, 0, 0);&quot;&gt;&lt;font face=&quot;Helvetica&quot;&gt; &lt;/font&gt;&lt;font face=&quot;Helvetica&quot;&gt;Map c&lt;/font&gt;lick listener checks if click inside UK boundary, adds new marker, shows report form&lt;/font&gt;&lt;/div&gt;&lt;div style=&quot;line-height: 19px;&quot;&gt;&lt;div style=&quot;text-align: left; line-height: 19px;&quot;&gt;&lt;span&gt;&lt;span style=&quot;font-family: Consolas, &amp;quot;Courier New&amp;quot;, monospace; color: rgb(220, 220, 170);&quot;&gt;handleConditionSelectionChange&lt;/span&gt;&lt;span style=&quot;font-family: Consolas, &amp;quot;Courier New&amp;quot;, monospace; color: light-dark(rgb(0, 0, 0), rgb(255, 255, 255));&quot;&gt;()&lt;/span&gt;&lt;span style=&quot;color: light-dark(rgb(0, 0, 0), rgb(255, 255, 255));&quot;&gt; &lt;/span&gt;&lt;span style=&quot;color: light-dark(rgb(0, 0, 0), rgb(255, 255, 255));&quot;&gt;When condition changes show/hide reasons field, change marker colour&lt;/span&gt;&lt;/span&gt;&lt;/div&gt;&lt;div style=&quot;font-family: Consolas, &amp;quot;Courier New&amp;quot;, monospace; line-height: 19px;&quot;&gt;&lt;div style=&quot;text-align: left; line-height: 19px;&quot;&gt;&lt;span style=&quot;color: rgb(220, 220, 170);&quot;&gt;searchLocation&lt;/span&gt;()&lt;span style=&quot;color: light-dark(rgb(0, 0, 0), rgb(255, 255, 255)); font-family: Helvetica;&quot;&gt; &lt;/span&gt;&lt;span style=&quot;color: light-dark(rgb(0, 0, 0), rgb(255, 255, 255)); font-family: Helvetica;&quot;&gt;Handles seach location button click: validates input, calls&lt;/span&gt;&lt;font style=&quot;color: rgb(0, 0, 0);&quot;&gt;&lt;span style=&quot;font-family: Helvetica;&quot;&gt; &lt;/span&gt;searchLocationNominatim&lt;font face=&quot;Consolas, Courier New, monospace&quot;&gt;()&lt;/font&gt;&lt;/font&gt;&lt;/div&gt;&lt;div style=&quot;font-family: Helvetica; line-height: 19px;&quot;&gt;&lt;/div&gt;&lt;/div&gt;&lt;/div&gt;&lt;div style=&quot;line-height: 19px;&quot;&gt;&lt;div style=&quot;text-align: left; font-family: Consolas, &amp;quot;Courier New&amp;quot;, monospace; line-height: 19px;&quot;&gt;&lt;span&gt;&lt;span style=&quot;color: rgb(220, 220, 170);&quot;&gt;removeAllMessages&lt;/span&gt;()&lt;span style=&quot;color: light-dark(rgb(0, 0, 0), rgb(255, 255, 255)); font-family: Helvetica;&quot;&gt; &lt;/span&gt;&lt;span style=&quot;color: light-dark(rgb(0, 0, 0), rgb(255, 255, 255)); font-family: Helvetica;&quot;&gt;Removes all messages (&lt;/span&gt;&lt;span style=&quot;color: light-dark(rgb(0, 0, 0), rgb(255, 255, 255)); font-family: Helvetica;&quot;&gt;success etc) after 5 seconds&lt;/span&gt;&lt;/span&gt;&lt;/div&gt;&lt;div style=&quot;line-height: 19px;&quot;&gt;&lt;div style=&quot;text-align: left; line-height: 19px;&quot;&gt;&lt;font style=&quot;background-color: light-dark(#ffffff, var(--ge-dark-color, #121212)); color: rgb(0, 0, 0);&quot;&gt;&lt;br&gt;&lt;/font&gt;&lt;/div&gt;&lt;/div&gt;&lt;/div&gt;&lt;div style=&quot;text-align: left; line-height: 19px;&quot;&gt;&lt;font style=&quot;color: rgb(0, 0, 0);&quot;&gt;Helper functions&lt;/font&gt;&lt;/div&gt;&lt;div style=&quot;line-height: 19px;&quot;&gt;&lt;div style=&quot;text-align: left; line-height: 19px;&quot;&gt;&lt;span style=&quot;font-family: Consolas, &amp;quot;Courier New&amp;quot;, monospace; color: rgb(220, 220, 170);&quot;&gt;addMarkerForReport&lt;/span&gt;&lt;font face=&quot;Consolas, Courier New, monospace&quot;&gt;(&lt;/font&gt;&lt;span style=&quot;font-family: Consolas, &amp;quot;Courier New&amp;quot;, monospace; color: rgb(156, 220, 254);&quot;&gt;report&lt;/span&gt;&lt;span style=&quot;font-family: Consolas, &amp;quot;Courier New&amp;quot;, monospace; color: light-dark(rgb(0, 0, 0), rgb(255, 255, 255));&quot;&gt;)&lt;/span&gt;&lt;font face=&quot;Helvetica&quot;&gt;&lt;font color=&quot;#000000&quot;&gt; &lt;/font&gt;&lt;font style=&quot;color: rgb(0, 0, 0);&quot;&gt;Creates and adds a marker for the given report object, &lt;/font&gt;&lt;/font&gt;&lt;font style=&quot;color: rgb(0, 0, 0);&quot;&gt;configures its popup content, and sets up user interactions.&lt;/font&gt;&lt;/div&gt;&lt;/div&gt;&lt;div style=&quot;line-height: 19px;&quot;&gt;&lt;div style=&quot;line-height: 19px;&quot;&gt;&lt;div style=&quot;text-align: left; line-height: 19px;&quot;&gt;&lt;span style=&quot;font-family: Consolas, &amp;quot;Courier New&amp;quot;, monospace; color: rgb(220, 220, 170);&quot;&gt;generatePopupHTML&lt;/span&gt;&lt;font face=&quot;Consolas, Courier New, monospace&quot;&gt;(&lt;/font&gt;&lt;span style=&quot;font-family: Consolas, &amp;quot;Courier New&amp;quot;, monospace; color: rgb(156, 220, 254);&quot;&gt;report&lt;/span&gt;&lt;font face=&quot;Consolas, Courier New, monospace&quot;&gt;)&lt;/font&gt;&lt;font style=&quot;color: rgb(0, 0, 0);&quot; face=&quot;Helvetica&quot;&gt; Creates the content for the marker popups&lt;/font&gt;&lt;/div&gt;&lt;/div&gt;&lt;div style=&quot;text-align: left; line-height: 19px;&quot;&gt;&lt;span style=&quot;font-family: Consolas, &amp;quot;Courier New&amp;quot;, monospace;&quot;&gt;&lt;span style=&quot;color: rgb(220, 220, 170);&quot;&gt;resetForm&lt;/span&gt;()&lt;/span&gt;&lt;font style=&quot;color: rgb(0, 0, 0);&quot;&gt;&lt;font face=&quot;Helvetica&quot;&gt; &lt;/font&gt;&lt;font face=&quot;Helvetica&quot;&gt;Clears and resets all inputs in the report form to their defaults&lt;/font&gt;&lt;/font&gt;&lt;/div&gt;&lt;div style=&quot;line-height: 19px;&quot;&gt;&lt;div style=&quot;text-align: left; font-family: Consolas, &amp;quot;Courier New&amp;quot;, monospace; line-height: 19px;&quot;&gt;&lt;span&gt;&lt;span style=&quot;color: rgb(220, 220, 170);&quot;&gt;closeForm&lt;/span&gt;&lt;font style=&quot;color: rgb(0, 0, 0);&quot;&gt;()&lt;span style=&quot;font-family: Helvetica; color: rgb(237, 237, 237);&quot;&gt; &lt;/span&gt;&lt;span style=&quot;font-family: Helvetica;&quot;&gt;Removes map marker, hides and resets form&lt;/span&gt;&lt;/font&gt;&lt;/span&gt;&lt;/div&gt;&lt;div style=&quot;line-height: 19px;&quot;&gt;&lt;div style=&quot;text-align: left; font-family: Consolas, &amp;quot;Courier New&amp;quot;, monospace; line-height: 19px;&quot;&gt;&lt;span&gt;&lt;span style=&quot;color: rgb(220, 220, 170);&quot;&gt;toggleReasonsFieldVisibility&lt;/span&gt;&lt;font style=&quot;color: rgb(0, 0, 0);&quot;&gt;()&lt;span style=&quot;font-family: Helvetica;&quot;&gt; &lt;/span&gt;&lt;span style=&quot;font-family: Helvetica;&quot;&gt;Shows/hides reasons field depending on value of condition&lt;/span&gt;&lt;/font&gt;&lt;/span&gt;&lt;/div&gt;&lt;div style=&quot;line-height: 19px;&quot;&gt;&lt;div style=&quot;text-align: left; font-family: Consolas, &amp;quot;Courier New&amp;quot;, monospace; line-height: 19px;&quot;&gt;&lt;span style=&quot;color: rgb(220, 220, 170);&quot;&gt;setMarkerColour&lt;/span&gt;(&lt;span style=&quot;color: rgb(156, 220, 254);&quot;&gt;marker&lt;/span&gt;&lt;span style=&quot;color: light-dark(rgb(0, 0, 0), rgb(255, 255, 255));&quot;&gt;, &lt;/span&gt;&lt;span style=&quot;color: rgb(156, 220, 254);&quot;&gt;colour&lt;/span&gt;)&lt;font style=&quot;color: rgb(0, 0, 0);&quot;&gt;&lt;span style=&quot;font-family: Helvetica;&quot;&gt; &lt;/span&gt;&lt;span style=&quot;font-family: Helvetica;&quot;&gt;Sets colour of a map marker&lt;/span&gt;&lt;/font&gt;&lt;/div&gt;&lt;div style=&quot;text-align: left; font-family: Consolas, &amp;quot;Courier New&amp;quot;, monospace; line-height: 19px;&quot;&gt;&lt;span&gt;&lt;span style=&quot;color: rgb(220, 220, 170);&quot;&gt;searchLocationNominatim&lt;/span&gt;&lt;font face=&quot;Consolas, Courier New, monospace&quot;&gt;(&lt;/font&gt;&lt;span style=&quot;color: rgb(156, 220, 254);&quot;&gt;locationText&lt;/span&gt;&lt;font style=&quot;color: light-dark(rgb(0, 0, 0), rgb(255, 255, 255));&quot; face=&quot;Consolas, Courier New, monospace&quot;&gt;)&lt;/font&gt;&lt;font style=&quot;color: light-dark(rgb(0, 0, 0), rgb(255, 255, 255)); font-family: Helvetica;&quot; face=&quot;Helvetica&quot;&gt; Search for a location using the Nominatim API with the given location text&lt;/font&gt;&lt;/span&gt;&lt;/div&gt;&lt;div style=&quot;line-height: 19px;&quot;&gt;&lt;div style=&quot;text-align: left; font-family: Consolas, &amp;quot;Courier New&amp;quot;, monospace; line-height: 19px; color: rgb(255, 255, 255);&quot;&gt;&lt;span&gt;&lt;span style=&quot;color: rgb(220, 220, 170);&quot;&gt;displaySearchLocationResults&lt;/span&gt;(&lt;span style=&quot;color: rgb(156, 220, 254);&quot;&gt;data&lt;/span&gt;)&lt;span style=&quot;color: light-dark(rgb(0, 0, 0), rgb(255, 255, 255)); font-family: Helvetica;&quot;&gt; &lt;/span&gt;&lt;span style=&quot;color: light-dark(rgb(0, 0, 0), rgb(255, 255, 255)); font-family: Helvetica;&quot;&gt;Displays Nominatim search results below location search bar (on map)&lt;/span&gt;&lt;/span&gt;&lt;/div&gt;&lt;div style=&quot;line-height: 19px;&quot;&gt;&lt;div style=&quot;text-align: left; font-family: Consolas, &amp;quot;Courier New&amp;quot;, monospace; line-height: 19px;&quot;&gt;&lt;span&gt;&lt;span style=&quot;color: rgb(220, 220, 170);&quot;&gt;displayLocationSearchError&lt;/span&gt;&lt;font style=&quot;color: rgb(0, 0, 0);&quot;&gt;()&lt;span style=&quot;font-family: Helvetica;&quot;&gt; &lt;/span&gt;&lt;span style=&quot;font-family: Helvetica;&quot;&gt;Displays error message below location search bar if Nominatim search fails&lt;/span&gt;&lt;/font&gt;&lt;/span&gt;&lt;/div&gt;&lt;div style=&quot;line-height: 19px;&quot;&gt;&lt;div style=&quot;line-height: 19px;&quot;&gt;&lt;div style=&quot;text-align: left; line-height: 19px;&quot;&gt;&lt;span&gt;&lt;span style=&quot;font-family: Consolas, &amp;quot;Courier New&amp;quot;, monospace; color: rgb(220, 220, 170);&quot;&gt;handleLocationSelect&lt;/span&gt;&lt;font face=&quot;Consolas, Courier New, monospace&quot;&gt;(&lt;/font&gt;&lt;span style=&quot;font-family: Consolas, &amp;quot;Courier New&amp;quot;, monospace; color: rgb(156, 220, 254);&quot;&gt;e&lt;/span&gt;&lt;font face=&quot;Consolas, Courier New, monospace&quot;&gt;)&lt;/font&gt;&lt;span style=&quot;color: rgb(237, 237, 237);&quot;&gt; &lt;/span&gt;&lt;span style=&quot;color: light-dark(rgb(0, 0, 0), rgb(237, 237, 237));&quot;&gt;Removes location search results div containing the results, adds selected location to &lt;/span&gt;&lt;span style=&quot;color: light-dark(rgb(0, 0, 0), rgb(237, 237, 237));&quot;&gt;the search bar,&lt;/span&gt;&lt;/span&gt;&lt;/div&gt;&lt;div style=&quot;text-align: left; line-height: 19px;&quot;&gt;&lt;span&gt;&lt;span style=&quot;color: light-dark(rgb(0, 0, 0), rgb(237, 237, 237));&quot;&gt;swaps search button icon with a clear x, adds location &lt;/span&gt;&lt;span style=&quot;color: light-dark(rgb(0, 0, 0), rgb(237, 237, 237));&quot;&gt;Polygon or&lt;/span&gt;&lt;span style=&quot;color: light-dark(rgb(0, 0, 0), rgb(237, 237, 237));&quot;&gt; marker to map. &lt;/span&gt;&lt;/span&gt;&lt;/div&gt;&lt;div style=&quot;text-align: left; line-height: 19px;&quot;&gt;&lt;span style=&quot;color: light-dark(rgb(0, 0, 0), rgb(237, 237, 237)); background-color: light-dark(#ffffff, var(--ge-dark-color, #121212));&quot;&gt;&lt;br&gt;&lt;/span&gt;&lt;/div&gt;&lt;div style=&quot;text-align: left; line-height: 19px;&quot;&gt;&lt;font style=&quot;color: light-dark(rgb(0, 0, 0), rgb(255, 255, 255));&quot;&gt;New report creation&lt;/font&gt;&lt;/div&gt;&lt;div style=&quot;line-height: 19px;&quot;&gt;&lt;div style=&quot;text-align: left; line-height: 19px;&quot;&gt;&lt;span style=&quot;font-family: Consolas, &amp;quot;Courier New&amp;quot;, monospace; color: rgb(220, 220, 170);&quot;&gt;validateNewReportForm&lt;/span&gt;&lt;span style=&quot;font-family: Consolas, &amp;quot;Courier New&amp;quot;, monospace; color: light-dark(rgb(0, 0, 0), rgb(255, 255, 255));&quot;&gt;(&lt;/span&gt;&lt;span style=&quot;font-family: Consolas, &amp;quot;Courier New&amp;quot;, monospace; color: rgb(156, 220, 254);&quot;&gt;e&lt;/span&gt;&lt;span style=&quot;font-family: Consolas, &amp;quot;Courier New&amp;quot;, monospace; color: light-dark(rgb(0, 0, 0), rgb(255, 255, 255));&quot;&gt;)&lt;/span&gt; &lt;span style=&quot;color: light-dark(rgb(0, 0, 0), rgb(255, 255, 255));&quot;&gt;Validates form, shows error messages if not valid, if valid disables buttons&lt;/span&gt;&lt;/div&gt;&lt;div&gt;&lt;div style=&quot;line-height: 19px;&quot;&gt;&lt;div style=&quot;line-height: 19px;&quot;&gt;&lt;div style=&quot;text-align: left;&quot;&gt;&lt;span style=&quot;font-family: Consolas, &amp;quot;Courier New&amp;quot;, monospace; color: rgb(220, 220, 170);&quot;&gt;processSuccessfulReportSubmission&lt;/span&gt;&lt;font style=&quot;color: light-dark(rgb(0, 0, 0), rgb(255, 255, 255));&quot; face=&quot;Consolas, Courier New, monospace&quot;&gt;()&lt;/font&gt;&lt;font style=&quot;color: rgb(0, 0, 0);&quot;&gt;&lt;font face=&quot;Helvetica&quot;&gt; &lt;/font&gt;&lt;font face=&quot;Helvetica&quot;&gt;Listens for a successful report submission via HTMX, gets&lt;/font&gt; and removes new embedded report data, &lt;/font&gt;&lt;/div&gt;&lt;div style=&quot;text-align: left;&quot;&gt;&lt;font style=&quot;color: rgb(0, 0, 0);&quot;&gt;&#x9;adds a map marker, hides and resets form.&lt;/font&gt;&lt;/div&gt;&lt;div style=&quot;text-align: left;&quot;&gt;&lt;font style=&quot;background-color: light-dark(#ffffff, var(--ge-dark-color, #121212)); color: rgb(0, 0, 0);&quot;&gt;&lt;br&gt;&lt;/font&gt;&lt;/div&gt;&lt;div style=&quot;text-align: left;&quot;&gt;&lt;font style=&quot;color: rgb(0, 0, 0);&quot;&gt;Update report location on marker drag&lt;/font&gt;&lt;/div&gt;&lt;div&gt;&lt;div style=&quot;text-align: left; line-height: 19px;&quot;&gt;&lt;span style=&quot;font-family: Consolas, &amp;quot;Courier New&amp;quot;, monospace; color: rgb(220, 220, 170);&quot;&gt;updateReportLocation&lt;/span&gt;&lt;font face=&quot;Consolas, Courier New, monospace&quot;&gt;(&lt;/font&gt;&lt;span style=&quot;font-family: Consolas, &amp;quot;Courier New&amp;quot;, monospace; color: rgb(156, 220, 254);&quot;&gt;reportId&lt;/span&gt;&lt;font face=&quot;Consolas, Courier New, monospace&quot;&gt;, &lt;/font&gt;&lt;span style=&quot;font-family: Consolas, &amp;quot;Courier New&amp;quot;, monospace; color: rgb(156, 220, 254);&quot;&gt;lat&lt;/span&gt;&lt;font face=&quot;Consolas, Courier New, monospace&quot;&gt;, &lt;/font&gt;&lt;span style=&quot;font-family: Consolas, &amp;quot;Courier New&amp;quot;, monospace; color: rgb(156, 220, 254);&quot;&gt;lng&lt;/span&gt;&lt;font face=&quot;Consolas, Courier New, monospace&quot;&gt;)&lt;font style=&quot;color: rgb(0, 0, 0);&quot;&gt; &lt;/font&gt;&lt;/font&gt;&lt;font style=&quot;color: rgb(0, 0, 0);&quot;&gt;&lt;font face=&quot;Helvetica&quot;&gt;Sends an HTMX POST to the Django endpoint &lt;/font&gt;&lt;span style=&quot;font-family: Consolas, &amp;quot;Courier New&amp;quot;, monospace;&quot;&gt;/reports/&lt;/span&gt;&lt;span style=&quot;font-family: Consolas, &amp;quot;Courier New&amp;quot;, monospace;&quot;&gt;${&lt;/span&gt;&lt;span style=&quot;font-family: Consolas, &amp;quot;Courier New&amp;quot;, monospace;&quot;&gt;reportId&lt;/span&gt;&lt;span style=&quot;font-family: Consolas, &amp;quot;Courier New&amp;quot;, monospace;&quot;&gt;}&lt;/span&gt;&lt;span style=&quot;font-family: Consolas, &amp;quot;Courier New&amp;quot;, monospace;&quot;&gt;/update-location/ &lt;/span&gt;to update a report&#39;s location on the server.&lt;/font&gt;&lt;/div&gt;&lt;div style=&quot;line-height: 19px;&quot;&gt;&lt;div style=&quot;text-align: left;&quot;&gt;&lt;font style=&quot;color: rgb(0, 0, 0);&quot;&gt;&lt;font style=&quot;color: rgb(0, 0, 0);&quot;&gt;&lt;font face=&quot;Helvetica&quot;&gt;targets the #updated-report-container so the updatesd report can be embedded in the DOM, so that an &lt;/font&gt;&lt;span style=&quot;font-family: Consolas, &amp;quot;Courier New&amp;quot;, monospace;&quot;&gt;&#39;htmx:afterSwap&#39;&lt;/span&gt; can call&lt;/font&gt;&lt;font style=&quot;color: rgb(0, 0, 0);&quot;&gt; &lt;/font&gt;&lt;span style=&quot;font-family: Consolas, &amp;quot;Courier New&amp;quot;, monospace; color: rgb(220, 220, 170);&quot;&gt;processSuccessfulReportUpdate&lt;/span&gt;&lt;span style=&quot;font-family: Consolas, &amp;quot;Courier New&amp;quot;, monospace;&quot;&gt;()&lt;/span&gt;&lt;/font&gt;&lt;/div&gt;&lt;div&gt;&lt;div style=&quot;text-wrap-mode: nowrap; text-align: left; font-family: Consolas, &amp;quot;Courier New&amp;quot;, monospace; line-height: 19px;&quot;&gt;&lt;span&gt;&lt;span style=&quot;color: rgb(220, 220, 170);&quot;&gt;processSuccessfulReportUpdate&lt;/span&gt;&lt;font&gt;()&lt;font style=&quot;color: rgb(0, 0, 0);&quot;&gt;&lt;font style=&quot;font-family: Helvetica;&quot; face=&quot;Helvetica&quot;&gt; &lt;/font&gt;&lt;font&gt;&lt;font style=&quot;font-family: Helvetica;&quot; face=&quot;Helvetica&quot;&gt;Listens for a successful report update via HTMX, gets&lt;/font&gt;&lt;span style=&quot;font-family: Helvetica;&quot;&gt; and removes updated embedded report data, &lt;/span&gt;&lt;/font&gt;&lt;/font&gt;&lt;/font&gt;&lt;/span&gt;&lt;/div&gt;&lt;div style=&quot;text-wrap-mode: nowrap; text-align: left; line-height: 19px;&quot;&gt;&lt;font style=&quot;color: rgb(0, 0, 0);&quot;&gt;r&lt;font face=&quot;Helvetica&quot;&gt;efreshes the marker’s popup with new coordinates, place name, and county. D&lt;/font&gt;isables dragging on the marker and resets its color to match the report’s condition.&lt;/font&gt;&lt;/div&gt;&lt;/div&gt;&lt;div&gt;&lt;font style=&quot;color: rgb(0, 0, 0);&quot;&gt;&lt;br&gt;&lt;/font&gt;&lt;/div&gt;&lt;/div&gt;&lt;/div&gt;&lt;/div&gt;&lt;/div&gt;&lt;/div&gt;&lt;/div&gt;&lt;/div&gt;&lt;/div&gt;&lt;/div&gt;&lt;/div&gt;&lt;/div&gt;&lt;/div&gt;&lt;/div&gt;&lt;/div&gt;&lt;/div&gt;&lt;/div&gt;&lt;/div&gt;" style="rounded=0;whiteSpace=wrap;html=1;" vertex="1" parent="1">
          <mxGeometry x="-1100" y="131" width="1070" height="909" as="geometry" />
        </mxCell>
        <mxCell id="-4F1bldaN1rVmbEE7iW6-187" value="View" style="text;html=1;align=center;verticalAlign=middle;resizable=0;points=[];autosize=1;strokeColor=none;fillColor=none;fontSize=16;" vertex="1" parent="1">
          <mxGeometry x="454" y="-399" width="60" height="30" as="geometry" />
        </mxCell>
        <mxCell id="-4F1bldaN1rVmbEE7iW6-188" value="URL" style="text;html=1;align=center;verticalAlign=middle;resizable=0;points=[];autosize=1;strokeColor=none;fillColor=none;fontSize=16;" vertex="1" parent="1">
          <mxGeometry x="173" y="-399" width="60" height="30" as="geometry" />
        </mxCell>
        <mxCell id="-4F1bldaN1rVmbEE7iW6-189" value="Browser" style="text;html=1;align=center;verticalAlign=middle;resizable=0;points=[];autosize=1;strokeColor=none;fillColor=none;fontSize=16;" vertex="1" parent="1">
          <mxGeometry x="-50" y="-399" width="80" height="30" as="geometry" />
        </mxCell>
        <mxCell id="-4F1bldaN1rVmbEE7iW6-190" value="Model" style="text;html=1;align=center;verticalAlign=middle;resizable=0;points=[];autosize=1;strokeColor=none;fillColor=none;fontSize=16;" vertex="1" parent="1">
          <mxGeometry x="729" y="-399" width="70" height="30" as="geometry" />
        </mxCell>
        <mxCell id="-4F1bldaN1rVmbEE7iW6-192" value="" style="group" vertex="1" connectable="0" parent="1">
          <mxGeometry x="390" y="51" width="230" height="86" as="geometry" />
        </mxCell>
        <mxCell id="-4F1bldaN1rVmbEE7iW6-52" value="&lt;div&gt;&lt;ul style=&quot;padding-left: 20px; margin-right: 0px; padding-bottom: 0px; margin-bottom: 6px; margin-top: 6px;&quot;&gt;&lt;li style=&quot;text-align: left;&quot;&gt;&lt;span style=&quot;background-color: transparent; color: light-dark(rgb(0, 0, 0), rgb(255, 255, 255));&quot;&gt;Fills in any missing place_name field values and saves it&lt;/span&gt;&lt;/li&gt;&lt;li style=&quot;text-align: left;&quot;&gt;&lt;span style=&quot;background-color: transparent; color: light-dark(rgb(0, 0, 0), rgb(255, 255, 255));&quot;&gt;Converts each report to a dictionary&lt;/span&gt;&lt;/li&gt;&lt;/ul&gt;&lt;/div&gt;" style="rounded=0;whiteSpace=wrap;html=1;" vertex="1" parent="-4F1bldaN1rVmbEE7iW6-192">
          <mxGeometry y="16.5" width="230" height="69.5" as="geometry" />
        </mxCell>
        <mxCell id="-4F1bldaN1rVmbEE7iW6-191" value="&lt;span style=&quot;color: rgb(0, 0, 255); font-family: &amp;quot;Lucida Console&amp;quot;; font-size: 12px; text-wrap-mode: wrap;&quot;&gt;serialise_report()&lt;/span&gt;" style="text;html=1;align=center;verticalAlign=middle;resizable=0;points=[];autosize=1;strokeColor=none;fillColor=none;fontSize=16;labelBackgroundColor=default;" vertex="1" parent="-4F1bldaN1rVmbEE7iW6-192">
          <mxGeometry x="45.54" width="150" height="30" as="geometry" />
        </mxCell>
        <mxCell id="-4F1bldaN1rVmbEE7iW6-194" value="Form" style="text;html=1;align=center;verticalAlign=middle;resizable=0;points=[];autosize=1;strokeColor=none;fillColor=none;fontSize=16;" vertex="1" parent="1">
          <mxGeometry x="1036.5" y="-399" width="60" height="30" as="geometry" />
        </mxCell>
        <mxCell id="-4F1bldaN1rVmbEE7iW6-195" value="&lt;div style=&quot;font-size: 12px; text-wrap-mode: wrap;&quot;&gt;&lt;font style=&quot;color: rgb(255, 0, 0);&quot; face=&quot;Lucida Console&quot;&gt;Report()&lt;/font&gt;&lt;/div&gt;" style="text;html=1;align=center;verticalAlign=middle;resizable=0;points=[];autosize=1;strokeColor=none;fillColor=none;fontSize=16;labelBackgroundColor=default;" vertex="1" parent="1">
          <mxGeometry x="767" y="55" width="80" height="30" as="geometry" />
        </mxCell>
        <mxCell id="-4F1bldaN1rVmbEE7iW6-229" value="Forms" style="shape=table;startSize=38;container=1;collapsible=0;childLayout=tableLayout;strokeColor=default;fontSize=16;snapToPoint=0;autosize=1;resizeWidth=0;resizeHeight=0;" vertex="1" parent="1">
          <mxGeometry x="1183" y="-680" width="526.9999999999991" height="230" as="geometry" />
        </mxCell>
        <mxCell id="-4F1bldaN1rVmbEE7iW6-230" value="" style="shape=tableRow;horizontal=0;startSize=0;swimlaneHead=0;swimlaneBody=0;strokeColor=inherit;top=0;left=0;bottom=0;right=0;collapsible=0;dropTarget=0;fillColor=none;points=[[0,0.5],[1,0.5]];portConstraint=eastwest;fontSize=16;" vertex="1" parent="-4F1bldaN1rVmbEE7iW6-229">
          <mxGeometry y="38" width="526.9999999999991" height="48" as="geometry" />
        </mxCell>
        <mxCell id="-4F1bldaN1rVmbEE7iW6-231" value="&lt;font face=&quot;Lucida Console&quot;&gt;&lt;span style=&quot;font-size: 12px;&quot;&gt;ReportForm(forms.ModelForm)&lt;/span&gt;&lt;/font&gt;" style="shape=partialRectangle;html=1;whiteSpace=wrap;connectable=0;strokeColor=inherit;overflow=hidden;fillColor=none;top=0;left=0;bottom=0;right=0;pointerEvents=1;fontSize=16;align=left;spacingRight=6;spacingBottom=6;spacingLeft=6;spacing=0;spacingTop=5;" vertex="1" parent="-4F1bldaN1rVmbEE7iW6-230">
          <mxGeometry width="240" height="48" as="geometry">
            <mxRectangle width="240" height="48" as="alternateBounds" />
          </mxGeometry>
        </mxCell>
        <mxCell id="-4F1bldaN1rVmbEE7iW6-232" value="&lt;div style=&quot;text-align: left;&quot;&gt;&lt;span style=&quot;font-size: 12px;&quot;&gt;A &lt;font face=&quot;Lucida Console&quot;&gt;ModelForm&lt;/font&gt; for creating and editing dropped-kerb &lt;font face=&quot;Lucida Console&quot;&gt;Report&lt;/font&gt; instances.&lt;/span&gt;&lt;/div&gt;" style="shape=partialRectangle;html=1;whiteSpace=wrap;connectable=0;strokeColor=inherit;overflow=hidden;fillColor=none;top=0;left=0;bottom=0;right=0;pointerEvents=1;fontSize=16;spacingRight=6;spacingBottom=6;spacingLeft=6;spacing=0;spacingTop=5;" vertex="1" parent="-4F1bldaN1rVmbEE7iW6-230">
          <mxGeometry x="240" width="287" height="48" as="geometry">
            <mxRectangle width="287" height="48" as="alternateBounds" />
          </mxGeometry>
        </mxCell>
        <mxCell id="-4F1bldaN1rVmbEE7iW6-233" value="" style="shape=tableRow;horizontal=0;startSize=0;swimlaneHead=0;swimlaneBody=0;strokeColor=inherit;top=0;left=0;bottom=0;right=0;collapsible=0;dropTarget=0;fillColor=none;points=[[0,0.5],[1,0.5]];portConstraint=eastwest;fontSize=16;" vertex="1" parent="-4F1bldaN1rVmbEE7iW6-229">
          <mxGeometry y="86" width="526.9999999999991" height="48" as="geometry" />
        </mxCell>
        <mxCell id="-4F1bldaN1rVmbEE7iW6-234" value="&lt;font face=&quot;Lucida Console&quot;&gt;&lt;span style=&quot;font-size: 12px;&quot;&gt;CustomSignupForm(SignupForm)&lt;/span&gt;&lt;/font&gt;" style="shape=partialRectangle;html=1;whiteSpace=wrap;connectable=0;strokeColor=inherit;overflow=hidden;fillColor=none;top=0;left=0;bottom=0;right=0;pointerEvents=1;fontSize=16;align=left;spacingRight=6;spacingBottom=6;spacingLeft=6;spacing=0;spacingTop=5;" vertex="1" parent="-4F1bldaN1rVmbEE7iW6-233">
          <mxGeometry width="240" height="48" as="geometry">
            <mxRectangle width="240" height="48" as="alternateBounds" />
          </mxGeometry>
        </mxCell>
        <mxCell id="-4F1bldaN1rVmbEE7iW6-235" value="&lt;div&gt;&lt;span style=&quot;font-size: 12px;&quot;&gt;Extends allauth&#39;s SignupForm to collect and persist additional user profile data&amp;nbsp;&lt;/span&gt;&lt;span style=&quot;font-size: 12px; background-color: transparent; color: light-dark(rgb(0, 0, 0), rgb(255, 255, 255));&quot;&gt;during registration&lt;/span&gt;&lt;/div&gt;" style="shape=partialRectangle;html=1;whiteSpace=wrap;connectable=0;strokeColor=inherit;overflow=hidden;fillColor=none;top=0;left=0;bottom=0;right=0;pointerEvents=1;fontSize=16;align=left;spacingRight=6;spacingBottom=6;spacingLeft=6;spacing=0;spacingTop=5;" vertex="1" parent="-4F1bldaN1rVmbEE7iW6-233">
          <mxGeometry x="240" width="287" height="48" as="geometry">
            <mxRectangle width="287" height="48" as="alternateBounds" />
          </mxGeometry>
        </mxCell>
        <mxCell id="-4F1bldaN1rVmbEE7iW6-236" value="" style="shape=tableRow;horizontal=0;startSize=0;swimlaneHead=0;swimlaneBody=0;strokeColor=inherit;top=0;left=0;bottom=0;right=0;collapsible=0;dropTarget=0;fillColor=none;points=[[0,0.5],[1,0.5]];portConstraint=eastwest;fontSize=16;" vertex="1" parent="-4F1bldaN1rVmbEE7iW6-229">
          <mxGeometry y="134" width="526.9999999999991" height="49" as="geometry" />
        </mxCell>
        <mxCell id="-4F1bldaN1rVmbEE7iW6-237" value="&lt;font face=&quot;Lucida Console&quot;&gt;&lt;span style=&quot;font-size: 12px;&quot;&gt;ContactForm(forms.Form)&lt;/span&gt;&lt;/font&gt;" style="shape=partialRectangle;html=1;whiteSpace=wrap;connectable=0;strokeColor=inherit;overflow=hidden;fillColor=none;top=0;left=0;bottom=0;right=0;pointerEvents=1;fontSize=16;align=left;spacingRight=6;spacingBottom=6;spacingLeft=6;spacing=0;spacingTop=5;" vertex="1" parent="-4F1bldaN1rVmbEE7iW6-236">
          <mxGeometry width="240" height="49" as="geometry">
            <mxRectangle width="240" height="49" as="alternateBounds" />
          </mxGeometry>
        </mxCell>
        <mxCell id="-4F1bldaN1rVmbEE7iW6-238" value="&lt;font style=&quot;font-size: 12px;&quot;&gt;A simple contact-us form for site visitors to send messages or inquiries.&lt;/font&gt;" style="shape=partialRectangle;html=1;whiteSpace=wrap;connectable=0;strokeColor=inherit;overflow=hidden;fillColor=none;top=0;left=0;bottom=0;right=0;pointerEvents=1;fontSize=16;align=left;spacingRight=6;spacingBottom=6;spacingLeft=6;spacing=0;spacingTop=5;" vertex="1" parent="-4F1bldaN1rVmbEE7iW6-236">
          <mxGeometry x="240" width="287" height="49" as="geometry">
            <mxRectangle width="287" height="49" as="alternateBounds" />
          </mxGeometry>
        </mxCell>
        <mxCell id="-4F1bldaN1rVmbEE7iW6-239" style="shape=tableRow;horizontal=0;startSize=0;swimlaneHead=0;swimlaneBody=0;strokeColor=inherit;top=0;left=0;bottom=0;right=0;collapsible=0;dropTarget=0;fillColor=none;points=[[0,0.5],[1,0.5]];portConstraint=eastwest;fontSize=16;" vertex="1" parent="-4F1bldaN1rVmbEE7iW6-229">
          <mxGeometry y="183" width="526.9999999999991" height="47" as="geometry" />
        </mxCell>
        <mxCell id="-4F1bldaN1rVmbEE7iW6-240" value="&lt;font face=&quot;Lucida Console&quot;&gt;&lt;span style=&quot;font-size: 12px;&quot;&gt;CustomLoginForm(LoginForm)&lt;/span&gt;&lt;/font&gt;" style="shape=partialRectangle;html=1;whiteSpace=wrap;connectable=0;strokeColor=inherit;overflow=hidden;fillColor=none;top=0;left=0;bottom=0;right=0;pointerEvents=1;fontSize=16;align=left;spacingRight=6;spacingBottom=6;spacingLeft=6;spacing=0;spacingTop=5;" vertex="1" parent="-4F1bldaN1rVmbEE7iW6-239">
          <mxGeometry width="240" height="47" as="geometry">
            <mxRectangle width="240" height="47" as="alternateBounds" />
          </mxGeometry>
        </mxCell>
        <mxCell id="-4F1bldaN1rVmbEE7iW6-241" value="&lt;span style=&quot;font-size: 12px;&quot;&gt;Extends allauth&#39;s LoginForm to streamline the login UI and apply Crispy Forms styling.&lt;/span&gt;" style="shape=partialRectangle;html=1;whiteSpace=wrap;connectable=0;strokeColor=inherit;overflow=hidden;fillColor=none;top=0;left=0;bottom=0;right=0;pointerEvents=1;fontSize=16;align=left;spacingRight=6;spacingBottom=6;spacingLeft=6;spacing=0;spacingTop=5;" vertex="1" parent="-4F1bldaN1rVmbEE7iW6-239">
          <mxGeometry x="240" width="287" height="47" as="geometry">
            <mxRectangle width="287" height="47" as="alternateBounds" />
          </mxGeometry>
        </mxCell>
        <mxCell id="-4F1bldaN1rVmbEE7iW6-242" value="Models" style="shape=table;startSize=30;container=1;collapsible=0;childLayout=tableLayout;strokeColor=default;fontSize=16;snapToPoint=0;autosize=1;resizeWidth=0;resizeHeight=0;" vertex="1" parent="1">
          <mxGeometry x="710" y="-670" width="469.99999999999955" height="250" as="geometry" />
        </mxCell>
        <mxCell id="-4F1bldaN1rVmbEE7iW6-243" value="" style="shape=tableRow;horizontal=0;startSize=0;swimlaneHead=0;swimlaneBody=0;strokeColor=inherit;top=0;left=0;bottom=0;right=0;collapsible=0;dropTarget=0;fillColor=none;points=[[0,0.5],[1,0.5]];portConstraint=eastwest;fontSize=16;" vertex="1" parent="-4F1bldaN1rVmbEE7iW6-242">
          <mxGeometry y="30" width="469.99999999999955" height="50" as="geometry" />
        </mxCell>
        <mxCell id="-4F1bldaN1rVmbEE7iW6-244" value="&lt;span style=&quot;font-family: &amp;quot;Lucida Console&amp;quot;; font-size: 12px;&quot;&gt;CustomUser(AbstractUser)&lt;/span&gt;" style="shape=partialRectangle;html=1;whiteSpace=wrap;connectable=0;strokeColor=inherit;overflow=hidden;fillColor=none;top=0;left=0;bottom=0;right=0;pointerEvents=1;fontSize=16;align=left;spacingRight=6;spacingBottom=6;spacingLeft=6;spacing=0;spacingTop=5;" vertex="1" parent="-4F1bldaN1rVmbEE7iW6-243">
          <mxGeometry width="240" height="50" as="geometry">
            <mxRectangle width="240" height="50" as="alternateBounds" />
          </mxGeometry>
        </mxCell>
        <mxCell id="-4F1bldaN1rVmbEE7iW6-245" value="&lt;div style=&quot;font-size: 12px; text-align: left;&quot;&gt;Extends Django&#39;s &lt;font face=&quot;Lucida Console&quot;&gt;AbstractUser&lt;/font&gt;&amp;nbsp;to capture accessibility-related user details.&lt;/div&gt;" style="shape=partialRectangle;html=1;whiteSpace=wrap;connectable=0;strokeColor=inherit;overflow=hidden;fillColor=none;top=0;left=0;bottom=0;right=0;pointerEvents=1;fontSize=16;spacingRight=6;spacingBottom=6;spacingLeft=6;spacing=0;spacingTop=5;" vertex="1" parent="-4F1bldaN1rVmbEE7iW6-243">
          <mxGeometry x="240" width="230" height="50" as="geometry">
            <mxRectangle width="230" height="50" as="alternateBounds" />
          </mxGeometry>
        </mxCell>
        <mxCell id="-4F1bldaN1rVmbEE7iW6-246" value="" style="shape=tableRow;horizontal=0;startSize=0;swimlaneHead=0;swimlaneBody=0;strokeColor=inherit;top=0;left=0;bottom=0;right=0;collapsible=0;dropTarget=0;fillColor=none;points=[[0,0.5],[1,0.5]];portConstraint=eastwest;fontSize=16;" vertex="1" parent="-4F1bldaN1rVmbEE7iW6-242">
          <mxGeometry y="80" width="469.99999999999955" height="50" as="geometry" />
        </mxCell>
        <mxCell id="-4F1bldaN1rVmbEE7iW6-247" value="&lt;span style=&quot;font-family: &amp;quot;Lucida Console&amp;quot;; font-size: 12px;&quot;&gt;County(geomodels.Model)&lt;/span&gt;" style="shape=partialRectangle;html=1;whiteSpace=wrap;connectable=0;strokeColor=inherit;overflow=hidden;fillColor=none;top=0;left=0;bottom=0;right=0;pointerEvents=1;fontSize=16;align=left;spacingRight=6;spacingBottom=6;spacingLeft=6;spacing=0;spacingTop=5;" vertex="1" parent="-4F1bldaN1rVmbEE7iW6-246">
          <mxGeometry width="240" height="50" as="geometry">
            <mxRectangle width="240" height="50" as="alternateBounds" />
          </mxGeometry>
        </mxCell>
        <mxCell id="-4F1bldaN1rVmbEE7iW6-248" value="&lt;span style=&quot;font-size: 12px;&quot;&gt;A geospatial model representing a county boundary.&lt;/span&gt;" style="shape=partialRectangle;html=1;whiteSpace=wrap;connectable=0;strokeColor=inherit;overflow=hidden;fillColor=none;top=0;left=0;bottom=0;right=0;pointerEvents=1;fontSize=16;align=left;spacingRight=6;spacingBottom=6;spacingLeft=6;spacing=0;spacingTop=5;" vertex="1" parent="-4F1bldaN1rVmbEE7iW6-246">
          <mxGeometry x="240" width="230" height="50" as="geometry">
            <mxRectangle width="230" height="50" as="alternateBounds" />
          </mxGeometry>
        </mxCell>
        <mxCell id="-4F1bldaN1rVmbEE7iW6-249" value="" style="shape=tableRow;horizontal=0;startSize=0;swimlaneHead=0;swimlaneBody=0;strokeColor=inherit;top=0;left=0;bottom=0;right=0;collapsible=0;dropTarget=0;fillColor=none;points=[[0,0.5],[1,0.5]];portConstraint=eastwest;fontSize=16;" vertex="1" parent="-4F1bldaN1rVmbEE7iW6-242">
          <mxGeometry y="130" width="469.99999999999955" height="50" as="geometry" />
        </mxCell>
        <mxCell id="-4F1bldaN1rVmbEE7iW6-250" value="&lt;font style=&quot;font-size: 12px;&quot; face=&quot;Lucida Console&quot;&gt;LocalAuthority(geomodels.Model)&lt;/font&gt;" style="shape=partialRectangle;html=1;whiteSpace=wrap;connectable=0;strokeColor=inherit;overflow=hidden;fillColor=none;top=0;left=0;bottom=0;right=0;pointerEvents=1;fontSize=16;align=left;spacingRight=6;spacingBottom=6;spacingLeft=6;spacing=0;spacingTop=5;" vertex="1" parent="-4F1bldaN1rVmbEE7iW6-249">
          <mxGeometry width="240" height="50" as="geometry">
            <mxRectangle width="240" height="50" as="alternateBounds" />
          </mxGeometry>
        </mxCell>
        <mxCell id="-4F1bldaN1rVmbEE7iW6-251" value="&lt;font style=&quot;font-size: 12px;&quot;&gt;A geospatial model representing a local authority boundary.&lt;/font&gt;" style="shape=partialRectangle;html=1;whiteSpace=wrap;connectable=0;strokeColor=inherit;overflow=hidden;fillColor=none;top=0;left=0;bottom=0;right=0;pointerEvents=1;fontSize=16;align=left;spacingRight=6;spacingBottom=6;spacingLeft=6;spacing=0;spacingTop=5;" vertex="1" parent="-4F1bldaN1rVmbEE7iW6-249">
          <mxGeometry x="240" width="230" height="50" as="geometry">
            <mxRectangle width="230" height="50" as="alternateBounds" />
          </mxGeometry>
        </mxCell>
        <mxCell id="-4F1bldaN1rVmbEE7iW6-252" style="shape=tableRow;horizontal=0;startSize=0;swimlaneHead=0;swimlaneBody=0;strokeColor=inherit;top=0;left=0;bottom=0;right=0;collapsible=0;dropTarget=0;fillColor=none;points=[[0,0.5],[1,0.5]];portConstraint=eastwest;fontSize=16;" vertex="1" parent="-4F1bldaN1rVmbEE7iW6-242">
          <mxGeometry y="180" width="469.99999999999955" height="70" as="geometry" />
        </mxCell>
        <mxCell id="-4F1bldaN1rVmbEE7iW6-253" value="&lt;font face=&quot;Lucida Console&quot; style=&quot;font-size: 12px;&quot;&gt;Report(models.Model)&lt;/font&gt;" style="shape=partialRectangle;html=1;whiteSpace=wrap;connectable=0;strokeColor=inherit;overflow=hidden;fillColor=none;top=0;left=0;bottom=0;right=0;pointerEvents=1;fontSize=16;align=left;spacingRight=6;spacingBottom=6;spacingLeft=6;spacing=0;spacingTop=5;" vertex="1" parent="-4F1bldaN1rVmbEE7iW6-252">
          <mxGeometry width="240" height="70" as="geometry">
            <mxRectangle width="240" height="70" as="alternateBounds" />
          </mxGeometry>
        </mxCell>
        <mxCell id="-4F1bldaN1rVmbEE7iW6-254" value="&lt;div&gt;&lt;font style=&quot;font-size: 12px;&quot;&gt;Stores an individual dropped-kerb report, including location,&amp;nbsp;&lt;/font&gt;&lt;span style=&quot;font-size: 12px; background-color: transparent; color: light-dark(rgb(0, 0, 0), rgb(255, 255, 255));&quot;&gt;condition, reasons for condition choice, comments and photo.&lt;/span&gt;&lt;/div&gt;" style="shape=partialRectangle;html=1;whiteSpace=wrap;connectable=0;strokeColor=inherit;overflow=hidden;fillColor=none;top=0;left=0;bottom=0;right=0;pointerEvents=1;fontSize=16;align=left;spacingRight=6;spacingBottom=6;spacingLeft=6;spacing=0;spacingTop=5;" vertex="1" parent="-4F1bldaN1rVmbEE7iW6-252">
          <mxGeometry x="240" width="230" height="70" as="geometry">
            <mxRectangle width="230" height="70" as="alternateBounds" />
          </mxGeometry>
        </mxCell>
        <mxCell id="-4F1bldaN1rVmbEE7iW6-210" value="Views" style="shape=table;startSize=30;container=1;collapsible=0;childLayout=tableLayout;strokeColor=default;fontSize=16;snapToPoint=0;autosize=1;resizeWidth=0;resizeHeight=0;" vertex="1" parent="1">
          <mxGeometry x="62" y="-1030" width="640" height="620" as="geometry" />
        </mxCell>
        <mxCell id="-4F1bldaN1rVmbEE7iW6-211" value="" style="shape=tableRow;horizontal=0;startSize=0;swimlaneHead=0;swimlaneBody=0;strokeColor=inherit;top=0;left=0;bottom=0;right=0;collapsible=0;dropTarget=0;fillColor=none;points=[[0,0.5],[1,0.5]];portConstraint=eastwest;fontSize=16;" vertex="1" parent="-4F1bldaN1rVmbEE7iW6-210">
          <mxGeometry y="30" width="640" height="33" as="geometry" />
        </mxCell>
        <mxCell id="-4F1bldaN1rVmbEE7iW6-212" value="&lt;font face=&quot;Lucida Console&quot;&gt;&lt;span style=&quot;font-size: 12px;&quot;&gt;home(request)&lt;/span&gt;&lt;/font&gt;" style="shape=partialRectangle;html=1;whiteSpace=wrap;connectable=0;strokeColor=inherit;overflow=hidden;fillColor=none;top=0;left=0;bottom=0;right=0;pointerEvents=1;fontSize=16;align=left;spacingRight=6;spacingBottom=6;spacingLeft=6;spacing=0;spacingTop=5;" vertex="1" parent="-4F1bldaN1rVmbEE7iW6-211">
          <mxGeometry width="339" height="33" as="geometry">
            <mxRectangle width="339" height="33" as="alternateBounds" />
          </mxGeometry>
        </mxCell>
        <mxCell id="-4F1bldaN1rVmbEE7iW6-213" value="&lt;div style=&quot;&quot;&gt;&lt;span style=&quot;font-size: 12px;&quot;&gt;Render and return the application home page.&lt;/span&gt;&lt;/div&gt;" style="shape=partialRectangle;html=1;whiteSpace=wrap;connectable=0;strokeColor=inherit;overflow=hidden;fillColor=none;top=0;left=0;bottom=0;right=0;pointerEvents=1;fontSize=16;spacingRight=6;spacingBottom=6;spacingLeft=6;spacing=0;spacingTop=5;align=left;" vertex="1" parent="-4F1bldaN1rVmbEE7iW6-211">
          <mxGeometry x="339" width="301" height="33" as="geometry">
            <mxRectangle width="301" height="33" as="alternateBounds" />
          </mxGeometry>
        </mxCell>
        <mxCell id="-4F1bldaN1rVmbEE7iW6-215" value="" style="shape=tableRow;horizontal=0;startSize=0;swimlaneHead=0;swimlaneBody=0;strokeColor=inherit;top=0;left=0;bottom=0;right=0;collapsible=0;dropTarget=0;fillColor=none;points=[[0,0.5],[1,0.5]];portConstraint=eastwest;fontSize=16;" vertex="1" parent="-4F1bldaN1rVmbEE7iW6-210">
          <mxGeometry y="63" width="640" height="67" as="geometry" />
        </mxCell>
        <mxCell id="-4F1bldaN1rVmbEE7iW6-216" value="&lt;font face=&quot;Lucida Console&quot;&gt;&lt;span style=&quot;font-size: 12px;&quot;&gt;MapReportsView(LoginRequiredMixin, View)&lt;/span&gt;&lt;/font&gt;&lt;div&gt;&lt;div&gt;&lt;font face=&quot;Lucida Console&quot;&gt;&lt;span style=&quot;font-size: 12px;&quot;&gt;get(self, request)&lt;/span&gt;&lt;/font&gt;&lt;/div&gt;&lt;div&gt;&lt;font face=&quot;Lucida Console&quot;&gt;&lt;span style=&quot;font-size: 12px;&quot;&gt;post(self, request)&lt;/span&gt;&lt;/font&gt;&lt;/div&gt;&lt;/div&gt;" style="shape=partialRectangle;html=1;whiteSpace=wrap;connectable=0;strokeColor=inherit;overflow=hidden;fillColor=none;top=0;left=0;bottom=0;right=0;pointerEvents=1;fontSize=16;align=left;spacingRight=6;spacingBottom=6;spacingLeft=6;spacing=0;spacingTop=5;" vertex="1" parent="-4F1bldaN1rVmbEE7iW6-215">
          <mxGeometry width="339" height="67" as="geometry">
            <mxRectangle width="339" height="67" as="alternateBounds" />
          </mxGeometry>
        </mxCell>
        <mxCell id="-4F1bldaN1rVmbEE7iW6-217" value="&lt;span style=&quot;font-size: 12px;&quot;&gt;Handles the interactive map-reports page&lt;/span&gt;&lt;div&gt;&lt;div&gt;&lt;font style=&quot;font-size: 12px;&quot;&gt;Gets all existing reports&lt;/font&gt;&lt;/div&gt;&lt;div&gt;&lt;span style=&quot;font-size: 12px;&quot;&gt;Create a new report via the map interface&lt;/span&gt;&lt;/div&gt;&lt;/div&gt;" style="shape=partialRectangle;html=1;whiteSpace=wrap;connectable=0;strokeColor=inherit;overflow=hidden;fillColor=none;top=0;left=0;bottom=0;right=0;pointerEvents=1;fontSize=16;align=left;spacingRight=6;spacingBottom=6;spacingLeft=6;spacing=0;spacingTop=5;" vertex="1" parent="-4F1bldaN1rVmbEE7iW6-215">
          <mxGeometry x="339" width="301" height="67" as="geometry">
            <mxRectangle width="301" height="67" as="alternateBounds" />
          </mxGeometry>
        </mxCell>
        <mxCell id="-4F1bldaN1rVmbEE7iW6-219" value="" style="shape=tableRow;horizontal=0;startSize=0;swimlaneHead=0;swimlaneBody=0;strokeColor=inherit;top=0;left=0;bottom=0;right=0;collapsible=0;dropTarget=0;fillColor=none;points=[[0,0.5],[1,0.5]];portConstraint=eastwest;fontSize=16;" vertex="1" parent="-4F1bldaN1rVmbEE7iW6-210">
          <mxGeometry y="130" width="640" height="70" as="geometry" />
        </mxCell>
        <mxCell id="-4F1bldaN1rVmbEE7iW6-220" value="&lt;font face=&quot;Lucida Console&quot;&gt;&lt;span style=&quot;font-size: 12px;&quot;&gt;update_report_location(request, pk)&lt;/span&gt;&lt;/font&gt;" style="shape=partialRectangle;html=1;whiteSpace=wrap;connectable=0;strokeColor=inherit;overflow=hidden;fillColor=none;top=0;left=0;bottom=0;right=0;pointerEvents=1;fontSize=16;align=left;spacingRight=6;spacingBottom=6;spacingLeft=6;spacing=0;spacingTop=5;" vertex="1" parent="-4F1bldaN1rVmbEE7iW6-219">
          <mxGeometry width="339" height="70" as="geometry">
            <mxRectangle width="339" height="70" as="alternateBounds" />
          </mxGeometry>
        </mxCell>
        <mxCell id="-4F1bldaN1rVmbEE7iW6-221" value="&lt;font style=&quot;font-size: 12px;&quot;&gt;Update an existing report&#39;s latitude and longitude when the user drags the map marker to another location.&lt;/font&gt;&lt;div&gt;&lt;br&gt;&lt;/div&gt;" style="shape=partialRectangle;html=1;whiteSpace=wrap;connectable=0;strokeColor=inherit;overflow=hidden;fillColor=none;top=0;left=0;bottom=0;right=0;pointerEvents=1;fontSize=16;align=left;spacingRight=6;spacingBottom=6;spacingLeft=6;spacing=0;spacingTop=5;" vertex="1" parent="-4F1bldaN1rVmbEE7iW6-219">
          <mxGeometry x="339" width="301" height="70" as="geometry">
            <mxRectangle width="301" height="70" as="alternateBounds" />
          </mxGeometry>
        </mxCell>
        <mxCell id="-4F1bldaN1rVmbEE7iW6-226" style="shape=tableRow;horizontal=0;startSize=0;swimlaneHead=0;swimlaneBody=0;strokeColor=inherit;top=0;left=0;bottom=0;right=0;collapsible=0;dropTarget=0;fillColor=none;points=[[0,0.5],[1,0.5]];portConstraint=eastwest;fontSize=16;" vertex="1" parent="-4F1bldaN1rVmbEE7iW6-210">
          <mxGeometry y="200" width="640" height="30" as="geometry" />
        </mxCell>
        <mxCell id="-4F1bldaN1rVmbEE7iW6-227" value="&lt;font style=&quot;font-size: 12px;&quot; face=&quot;Lucida Console&quot;&gt;edit_report(request, pk)&lt;/font&gt;" style="shape=partialRectangle;html=1;whiteSpace=wrap;connectable=0;strokeColor=inherit;overflow=hidden;fillColor=none;top=0;left=0;bottom=0;right=0;pointerEvents=1;fontSize=16;align=left;spacingRight=6;spacingBottom=6;spacingLeft=6;spacing=0;spacingTop=5;" vertex="1" parent="-4F1bldaN1rVmbEE7iW6-226">
          <mxGeometry width="339" height="30" as="geometry">
            <mxRectangle width="339" height="30" as="alternateBounds" />
          </mxGeometry>
        </mxCell>
        <mxCell id="-4F1bldaN1rVmbEE7iW6-228" value="&lt;font style=&quot;font-size: 12px;&quot;&gt;Display and process the form for editing an existing report.&lt;/font&gt;" style="shape=partialRectangle;html=1;whiteSpace=wrap;connectable=0;strokeColor=inherit;overflow=hidden;fillColor=none;top=0;left=0;bottom=0;right=0;pointerEvents=1;fontSize=16;align=left;spacingRight=6;spacingBottom=6;spacingLeft=6;spacing=0;spacingTop=5;" vertex="1" parent="-4F1bldaN1rVmbEE7iW6-226">
          <mxGeometry x="339" width="301" height="30" as="geometry">
            <mxRectangle width="301" height="30" as="alternateBounds" />
          </mxGeometry>
        </mxCell>
        <mxCell id="-4F1bldaN1rVmbEE7iW6-255" style="shape=tableRow;horizontal=0;startSize=0;swimlaneHead=0;swimlaneBody=0;strokeColor=inherit;top=0;left=0;bottom=0;right=0;collapsible=0;dropTarget=0;fillColor=none;points=[[0,0.5],[1,0.5]];portConstraint=eastwest;fontSize=16;" vertex="1" parent="-4F1bldaN1rVmbEE7iW6-210">
          <mxGeometry y="230" width="640" height="30" as="geometry" />
        </mxCell>
        <mxCell id="-4F1bldaN1rVmbEE7iW6-256" value="&lt;font style=&quot;font-size: 12px;&quot; face=&quot;Lucida Console&quot;&gt;delete_report(request, pk)&lt;/font&gt;" style="shape=partialRectangle;html=1;whiteSpace=wrap;connectable=0;strokeColor=inherit;overflow=hidden;fillColor=none;top=0;left=0;bottom=0;right=0;pointerEvents=1;fontSize=16;align=left;spacingRight=6;spacingBottom=6;spacingLeft=6;spacing=0;spacingTop=5;" vertex="1" parent="-4F1bldaN1rVmbEE7iW6-255">
          <mxGeometry width="339" height="30" as="geometry">
            <mxRectangle width="339" height="30" as="alternateBounds" />
          </mxGeometry>
        </mxCell>
        <mxCell id="-4F1bldaN1rVmbEE7iW6-257" value="&lt;font style=&quot;font-size: 12px;&quot;&gt;Delete a dropped-kerb report.&lt;/font&gt;" style="shape=partialRectangle;html=1;whiteSpace=wrap;connectable=0;strokeColor=inherit;overflow=hidden;fillColor=none;top=0;left=0;bottom=0;right=0;pointerEvents=1;fontSize=16;align=left;spacingRight=6;spacingBottom=6;spacingLeft=6;spacing=0;spacingTop=5;" vertex="1" parent="-4F1bldaN1rVmbEE7iW6-255">
          <mxGeometry x="339" width="301" height="30" as="geometry">
            <mxRectangle width="301" height="30" as="alternateBounds" />
          </mxGeometry>
        </mxCell>
        <mxCell id="-4F1bldaN1rVmbEE7iW6-258" style="shape=tableRow;horizontal=0;startSize=0;swimlaneHead=0;swimlaneBody=0;strokeColor=inherit;top=0;left=0;bottom=0;right=0;collapsible=0;dropTarget=0;fillColor=none;points=[[0,0.5],[1,0.5]];portConstraint=eastwest;fontSize=16;" vertex="1" parent="-4F1bldaN1rVmbEE7iW6-210">
          <mxGeometry y="260" width="640" height="50" as="geometry" />
        </mxCell>
        <mxCell id="-4F1bldaN1rVmbEE7iW6-259" value="&lt;span style=&quot;font-family: &amp;quot;Lucida Console&amp;quot;; font-size: 12px;&quot;&gt;ReportList(LoginRequiredMixin, SingleTableView)&lt;/span&gt;" style="shape=partialRectangle;html=1;whiteSpace=wrap;connectable=0;strokeColor=inherit;overflow=hidden;fillColor=none;top=0;left=0;bottom=0;right=0;pointerEvents=1;fontSize=16;align=left;spacingRight=6;spacingBottom=6;spacingLeft=6;spacing=0;spacingTop=5;" vertex="1" parent="-4F1bldaN1rVmbEE7iW6-258">
          <mxGeometry width="339" height="50" as="geometry">
            <mxRectangle width="339" height="50" as="alternateBounds" />
          </mxGeometry>
        </mxCell>
        <mxCell id="-4F1bldaN1rVmbEE7iW6-260" value="&lt;span style=&quot;font-size: 12px;&quot;&gt;Displays a table of dropped-kerb reports for the current user (or all reports for a superuser).&lt;/span&gt;" style="shape=partialRectangle;html=1;whiteSpace=wrap;connectable=0;strokeColor=inherit;overflow=hidden;fillColor=none;top=0;left=0;bottom=0;right=0;pointerEvents=1;fontSize=16;align=left;spacingRight=6;spacingBottom=6;spacingLeft=6;spacing=0;spacingTop=5;" vertex="1" parent="-4F1bldaN1rVmbEE7iW6-258">
          <mxGeometry x="339" width="301" height="50" as="geometry">
            <mxRectangle width="301" height="50" as="alternateBounds" />
          </mxGeometry>
        </mxCell>
        <mxCell id="-4F1bldaN1rVmbEE7iW6-261" style="shape=tableRow;horizontal=0;startSize=0;swimlaneHead=0;swimlaneBody=0;strokeColor=inherit;top=0;left=0;bottom=0;right=0;collapsible=0;dropTarget=0;fillColor=none;points=[[0,0.5],[1,0.5]];portConstraint=eastwest;fontSize=16;" vertex="1" parent="-4F1bldaN1rVmbEE7iW6-210">
          <mxGeometry y="310" width="640" height="50" as="geometry" />
        </mxCell>
        <mxCell id="-4F1bldaN1rVmbEE7iW6-262" value="&lt;font style=&quot;font-size: 12px;&quot; face=&quot;Lucida Console&quot;&gt;report_detail(request, pk)&lt;/font&gt;" style="shape=partialRectangle;html=1;whiteSpace=wrap;connectable=0;strokeColor=inherit;overflow=hidden;fillColor=none;top=0;left=0;bottom=0;right=0;pointerEvents=1;fontSize=16;align=left;spacingRight=6;spacingBottom=6;spacingLeft=6;spacing=0;spacingTop=5;" vertex="1" parent="-4F1bldaN1rVmbEE7iW6-261">
          <mxGeometry width="339" height="50" as="geometry">
            <mxRectangle width="339" height="50" as="alternateBounds" />
          </mxGeometry>
        </mxCell>
        <mxCell id="-4F1bldaN1rVmbEE7iW6-263" value="&lt;font style=&quot;font-size: 12px;&quot;&gt;Display detailed information for a single dropped-kerb report.&lt;/font&gt;" style="shape=partialRectangle;html=1;whiteSpace=wrap;connectable=0;strokeColor=inherit;overflow=hidden;fillColor=none;top=0;left=0;bottom=0;right=0;pointerEvents=1;fontSize=16;align=left;spacingRight=6;spacingBottom=6;spacingLeft=6;spacing=0;spacingTop=5;" vertex="1" parent="-4F1bldaN1rVmbEE7iW6-261">
          <mxGeometry x="339" width="301" height="50" as="geometry">
            <mxRectangle width="301" height="50" as="alternateBounds" />
          </mxGeometry>
        </mxCell>
        <mxCell id="-4F1bldaN1rVmbEE7iW6-267" style="shape=tableRow;horizontal=0;startSize=0;swimlaneHead=0;swimlaneBody=0;strokeColor=inherit;top=0;left=0;bottom=0;right=0;collapsible=0;dropTarget=0;fillColor=none;points=[[0,0.5],[1,0.5]];portConstraint=eastwest;fontSize=16;" vertex="1" parent="-4F1bldaN1rVmbEE7iW6-210">
          <mxGeometry y="360" width="640" height="40" as="geometry" />
        </mxCell>
        <mxCell id="-4F1bldaN1rVmbEE7iW6-268" value="&lt;font face=&quot;Lucida Console&quot;&gt;&lt;span style=&quot;font-size: 12px;&quot;&gt;get_os_map_tiles(request, z, x, y)&lt;/span&gt;&lt;/font&gt;" style="shape=partialRectangle;html=1;whiteSpace=wrap;connectable=0;strokeColor=inherit;overflow=hidden;fillColor=none;top=0;left=0;bottom=0;right=0;pointerEvents=1;fontSize=16;align=left;spacingRight=6;spacingBottom=6;spacingLeft=6;spacing=0;spacingTop=5;" vertex="1" parent="-4F1bldaN1rVmbEE7iW6-267">
          <mxGeometry width="339" height="40" as="geometry">
            <mxRectangle width="339" height="40" as="alternateBounds" />
          </mxGeometry>
        </mxCell>
        <mxCell id="-4F1bldaN1rVmbEE7iW6-269" value="&lt;font style=&quot;font-size: 12px;&quot;&gt;Proxy view to fetch Ordnance Survey raster map tiles.&lt;/font&gt;" style="shape=partialRectangle;html=1;whiteSpace=wrap;connectable=0;strokeColor=inherit;overflow=hidden;fillColor=none;top=0;left=0;bottom=0;right=0;pointerEvents=1;fontSize=16;align=left;spacingRight=6;spacingBottom=6;spacingLeft=6;spacing=0;spacingTop=5;" vertex="1" parent="-4F1bldaN1rVmbEE7iW6-267">
          <mxGeometry x="339" width="301" height="40" as="geometry">
            <mxRectangle width="301" height="40" as="alternateBounds" />
          </mxGeometry>
        </mxCell>
        <mxCell id="-4F1bldaN1rVmbEE7iW6-270" style="shape=tableRow;horizontal=0;startSize=0;swimlaneHead=0;swimlaneBody=0;strokeColor=inherit;top=0;left=0;bottom=0;right=0;collapsible=0;dropTarget=0;fillColor=none;points=[[0,0.5],[1,0.5]];portConstraint=eastwest;fontSize=16;" vertex="1" parent="-4F1bldaN1rVmbEE7iW6-210">
          <mxGeometry y="400" width="640" height="50" as="geometry" />
        </mxCell>
        <mxCell id="-4F1bldaN1rVmbEE7iW6-271" value="&lt;font style=&quot;font-size: 12px;&quot; face=&quot;Lucida Console&quot;&gt;get_google_satellite_tiles(request, z, x, y)&lt;/font&gt;" style="shape=partialRectangle;html=1;whiteSpace=wrap;connectable=0;strokeColor=inherit;overflow=hidden;fillColor=none;top=0;left=0;bottom=0;right=0;pointerEvents=1;fontSize=16;align=left;spacingRight=6;spacingBottom=6;spacingLeft=6;spacing=0;spacingTop=5;" vertex="1" parent="-4F1bldaN1rVmbEE7iW6-270">
          <mxGeometry width="339" height="50" as="geometry">
            <mxRectangle width="339" height="50" as="alternateBounds" />
          </mxGeometry>
        </mxCell>
        <mxCell id="-4F1bldaN1rVmbEE7iW6-272" value="&lt;font style=&quot;font-size: 12px;&quot;&gt;Proxy view to fetch Google Maps satellite tiles with session management.&lt;/font&gt;" style="shape=partialRectangle;html=1;whiteSpace=wrap;connectable=0;strokeColor=inherit;overflow=hidden;fillColor=none;top=0;left=0;bottom=0;right=0;pointerEvents=1;fontSize=16;align=left;spacingRight=6;spacingBottom=6;spacingLeft=6;spacing=0;spacingTop=5;" vertex="1" parent="-4F1bldaN1rVmbEE7iW6-270">
          <mxGeometry x="339" width="301" height="50" as="geometry">
            <mxRectangle width="301" height="50" as="alternateBounds" />
          </mxGeometry>
        </mxCell>
        <mxCell id="-4F1bldaN1rVmbEE7iW6-273" style="shape=tableRow;horizontal=0;startSize=0;swimlaneHead=0;swimlaneBody=0;strokeColor=inherit;top=0;left=0;bottom=0;right=0;collapsible=0;dropTarget=0;fillColor=none;points=[[0,0.5],[1,0.5]];portConstraint=eastwest;fontSize=16;" vertex="1" parent="-4F1bldaN1rVmbEE7iW6-210">
          <mxGeometry y="450" width="640" height="50" as="geometry" />
        </mxCell>
        <mxCell id="-4F1bldaN1rVmbEE7iW6-274" value="&lt;font style=&quot;font-size: 12px;&quot; face=&quot;Lucida Console&quot;&gt;CustomConfirmEmailView(ConfirmEmailView)&lt;/font&gt;" style="shape=partialRectangle;html=1;whiteSpace=wrap;connectable=0;strokeColor=inherit;overflow=hidden;fillColor=none;top=0;left=0;bottom=0;right=0;pointerEvents=1;fontSize=16;align=left;spacingRight=6;spacingBottom=6;spacingLeft=6;spacing=0;spacingTop=5;" vertex="1" parent="-4F1bldaN1rVmbEE7iW6-273">
          <mxGeometry width="339" height="50" as="geometry">
            <mxRectangle width="339" height="50" as="alternateBounds" />
          </mxGeometry>
        </mxCell>
        <mxCell id="-4F1bldaN1rVmbEE7iW6-275" value="&lt;font style=&quot;font-size: 12px;&quot;&gt;Automatically confirm a user&#39;s email address and log them in.&lt;/font&gt;" style="shape=partialRectangle;html=1;whiteSpace=wrap;connectable=0;strokeColor=inherit;overflow=hidden;fillColor=none;top=0;left=0;bottom=0;right=0;pointerEvents=1;fontSize=16;align=left;spacingRight=6;spacingBottom=6;spacingLeft=6;spacing=0;spacingTop=5;" vertex="1" parent="-4F1bldaN1rVmbEE7iW6-273">
          <mxGeometry x="339" width="301" height="50" as="geometry">
            <mxRectangle width="301" height="50" as="alternateBounds" />
          </mxGeometry>
        </mxCell>
        <mxCell id="-4F1bldaN1rVmbEE7iW6-276" style="shape=tableRow;horizontal=0;startSize=0;swimlaneHead=0;swimlaneBody=0;strokeColor=inherit;top=0;left=0;bottom=0;right=0;collapsible=0;dropTarget=0;fillColor=none;points=[[0,0.5],[1,0.5]];portConstraint=eastwest;fontSize=16;" vertex="1" parent="-4F1bldaN1rVmbEE7iW6-210">
          <mxGeometry y="500" width="640" height="40" as="geometry" />
        </mxCell>
        <mxCell id="-4F1bldaN1rVmbEE7iW6-277" value="&lt;font style=&quot;font-size: 12px;&quot; face=&quot;Lucida Console&quot;&gt;email_confirmation_success(request)&lt;/font&gt;" style="shape=partialRectangle;html=1;whiteSpace=wrap;connectable=0;strokeColor=inherit;overflow=hidden;fillColor=none;top=0;left=0;bottom=0;right=0;pointerEvents=1;fontSize=16;align=left;spacingRight=6;spacingBottom=6;spacingLeft=6;spacing=0;spacingTop=5;" vertex="1" parent="-4F1bldaN1rVmbEE7iW6-276">
          <mxGeometry width="339" height="40" as="geometry">
            <mxRectangle width="339" height="40" as="alternateBounds" />
          </mxGeometry>
        </mxCell>
        <mxCell id="-4F1bldaN1rVmbEE7iW6-278" value="&lt;font style=&quot;font-size: 12px;&quot;&gt;Render the email confirmation success page.&lt;/font&gt;" style="shape=partialRectangle;html=1;whiteSpace=wrap;connectable=0;strokeColor=inherit;overflow=hidden;fillColor=none;top=0;left=0;bottom=0;right=0;pointerEvents=1;fontSize=16;align=left;spacingRight=6;spacingBottom=6;spacingLeft=6;spacing=0;spacingTop=5;" vertex="1" parent="-4F1bldaN1rVmbEE7iW6-276">
          <mxGeometry x="339" width="301" height="40" as="geometry">
            <mxRectangle width="301" height="40" as="alternateBounds" />
          </mxGeometry>
        </mxCell>
        <mxCell id="-4F1bldaN1rVmbEE7iW6-279" style="shape=tableRow;horizontal=0;startSize=0;swimlaneHead=0;swimlaneBody=0;strokeColor=inherit;top=0;left=0;bottom=0;right=0;collapsible=0;dropTarget=0;fillColor=none;points=[[0,0.5],[1,0.5]];portConstraint=eastwest;fontSize=16;" vertex="1" parent="-4F1bldaN1rVmbEE7iW6-210">
          <mxGeometry y="540" width="640" height="40" as="geometry" />
        </mxCell>
        <mxCell id="-4F1bldaN1rVmbEE7iW6-280" value="&lt;div&gt;&lt;div&gt;&lt;font style=&quot;font-size: 12px;&quot; face=&quot;Lucida Console&quot;&gt;instructions(request)&lt;/font&gt;&lt;/div&gt;&lt;/div&gt;" style="shape=partialRectangle;html=1;whiteSpace=wrap;connectable=0;strokeColor=inherit;overflow=hidden;fillColor=none;top=0;left=0;bottom=0;right=0;pointerEvents=1;fontSize=16;align=left;spacingRight=6;spacingBottom=6;spacingLeft=6;spacing=0;spacingTop=5;" vertex="1" parent="-4F1bldaN1rVmbEE7iW6-279">
          <mxGeometry width="339" height="40" as="geometry">
            <mxRectangle width="339" height="40" as="alternateBounds" />
          </mxGeometry>
        </mxCell>
        <mxCell id="-4F1bldaN1rVmbEE7iW6-281" value="&lt;font style=&quot;font-size: 12px;&quot;&gt;Render the instructions page.&lt;/font&gt;" style="shape=partialRectangle;html=1;whiteSpace=wrap;connectable=0;strokeColor=inherit;overflow=hidden;fillColor=none;top=0;left=0;bottom=0;right=0;pointerEvents=1;fontSize=16;align=left;spacingRight=6;spacingBottom=6;spacingLeft=6;spacing=0;spacingTop=5;" vertex="1" parent="-4F1bldaN1rVmbEE7iW6-279">
          <mxGeometry x="339" width="301" height="40" as="geometry">
            <mxRectangle width="301" height="40" as="alternateBounds" />
          </mxGeometry>
        </mxCell>
        <mxCell id="-4F1bldaN1rVmbEE7iW6-282" style="shape=tableRow;horizontal=0;startSize=0;swimlaneHead=0;swimlaneBody=0;strokeColor=inherit;top=0;left=0;bottom=0;right=0;collapsible=0;dropTarget=0;fillColor=none;points=[[0,0.5],[1,0.5]];portConstraint=eastwest;fontSize=16;" vertex="1" parent="-4F1bldaN1rVmbEE7iW6-210">
          <mxGeometry y="580" width="640" height="40" as="geometry" />
        </mxCell>
        <mxCell id="-4F1bldaN1rVmbEE7iW6-283" value="&lt;font face=&quot;Lucida Console&quot; style=&quot;font-size: 12px;&quot;&gt;contact(request)&lt;/font&gt;" style="shape=partialRectangle;html=1;whiteSpace=wrap;connectable=0;strokeColor=inherit;overflow=hidden;fillColor=none;top=0;left=0;bottom=0;right=0;pointerEvents=1;fontSize=16;align=left;spacingRight=6;spacingBottom=6;spacingLeft=6;spacing=0;spacingTop=5;" vertex="1" parent="-4F1bldaN1rVmbEE7iW6-282">
          <mxGeometry width="339" height="40" as="geometry">
            <mxRectangle width="339" height="40" as="alternateBounds" />
          </mxGeometry>
        </mxCell>
        <mxCell id="-4F1bldaN1rVmbEE7iW6-284" style="shape=partialRectangle;html=1;whiteSpace=wrap;connectable=0;strokeColor=inherit;overflow=hidden;fillColor=none;top=0;left=0;bottom=0;right=0;pointerEvents=1;fontSize=16;align=left;spacingRight=6;spacingBottom=6;spacingLeft=6;spacing=0;spacingTop=5;" vertex="1" parent="-4F1bldaN1rVmbEE7iW6-282">
          <mxGeometry x="339" width="301" height="40" as="geometry">
            <mxRectangle width="301" height="40" as="alternateBounds" />
          </mxGeometry>
        </mxCell>
      </root>
    </mxGraphModel>
  </diagram>
</mxfile>
